<?xml version="1.0" encoding="UTF-8" standalone="no"?>
<!DOCTYPE svg PUBLIC "-//W3C//DTD SVG 1.1//EN"
 "http://www.w3.org/Graphics/SVG/1.1/DTD/svg11.dtd">
<!-- Generated by graphviz version 2.26.3 (20100126.1600)
 -->
<!-- Title: G Pages: 1 -->
<svg width="1218pt" height="1310pt"
 viewBox="0.00 0.00 1218.00 1310.00" xmlns="http://www.w3.org/2000/svg" xmlns:xlink="http://www.w3.org/1999/xlink">
<g id="graph1" class="graph" transform="scale(1 1) rotate(0) translate(4 1306)">
<title>G</title>
<polygon fill="white" stroke="white" points="-4,5 -4,-1306 1215,-1306 1215,5 -4,5"/>
<g id="graph2" class="cluster"><title>cluster_Global</title>
<polyline fill="none" stroke="gray" points="573,-206 1190,-206 "/>
<path fill="none" stroke="gray" d="M1190,-206C1196,-206 1202,-212 1202,-218"/>
<polyline fill="none" stroke="gray" points="1202,-218 1202,-1282 "/>
<path fill="none" stroke="gray" d="M1202,-1282C1202,-1288 1196,-1294 1190,-1294"/>
<polyline fill="none" stroke="gray" points="1190,-1294 573,-1294 "/>
<path fill="none" stroke="gray" d="M573,-1294C567,-1294 561,-1288 561,-1282"/>
<polyline fill="none" stroke="gray" points="561,-1282 561,-218 "/>
<path fill="none" stroke="gray" d="M561,-218C561,-212 567,-206 573,-206"/>
<text text-anchor="middle" x="881.5" y="-1280.1" font-family="Times Roman,serif" font-size="11.00" fill="gray">Global</text>
</g>
<g id="graph3" class="cluster"><title>cluster_\WebinoDebug</title>
<polyline fill="none" stroke="gray" points="581,-214 1182,-214 "/>
<path fill="none" stroke="gray" d="M1182,-214C1188,-214 1194,-220 1194,-226"/>
<polyline fill="none" stroke="gray" points="1194,-226 1194,-1252 "/>
<path fill="none" stroke="gray" d="M1194,-1252C1194,-1258 1188,-1264 1182,-1264"/>
<polyline fill="none" stroke="gray" points="1182,-1264 581,-1264 "/>
<path fill="none" stroke="gray" d="M581,-1264C575,-1264 569,-1258 569,-1252"/>
<polyline fill="none" stroke="gray" points="569,-1252 569,-226 "/>
<path fill="none" stroke="gray" d="M569,-226C569,-220 575,-214 581,-214"/>
<text text-anchor="middle" x="881.5" y="-1250.1" font-family="Times Roman,serif" font-size="11.00" fill="gray">WebinoDebug</text>
</g>
<g id="graph4" class="cluster"><title>cluster_\WebinoDebug\Service</title>
<polyline fill="none" stroke="gray" points="600,-1052 1147,-1052 "/>
<path fill="none" stroke="gray" d="M1147,-1052C1153,-1052 1159,-1058 1159,-1064"/>
<polyline fill="none" stroke="gray" points="1159,-1064 1159,-1222 "/>
<path fill="none" stroke="gray" d="M1159,-1222C1159,-1228 1153,-1234 1147,-1234"/>
<polyline fill="none" stroke="gray" points="1147,-1234 600,-1234 "/>
<path fill="none" stroke="gray" d="M600,-1234C594,-1234 588,-1228 588,-1222"/>
<polyline fill="none" stroke="gray" points="588,-1222 588,-1064 "/>
<path fill="none" stroke="gray" d="M588,-1064C588,-1058 594,-1052 600,-1052"/>
<text text-anchor="middle" x="873.5" y="-1220.1" font-family="Times Roman,serif" font-size="11.00" fill="gray">Service</text>
</g>
<g id="graph5" class="cluster"><title>cluster_\WebinoDebug\Factory</title>
<polyline fill="none" stroke="gray" points="1027,-552 1171,-552 "/>
<path fill="none" stroke="gray" d="M1171,-552C1177,-552 1183,-558 1183,-564"/>
<polyline fill="none" stroke="gray" points="1183,-564 1183,-722 "/>
<path fill="none" stroke="gray" d="M1183,-722C1183,-728 1177,-734 1171,-734"/>
<polyline fill="none" stroke="gray" points="1171,-734 1027,-734 "/>
<path fill="none" stroke="gray" d="M1027,-734C1021,-734 1015,-728 1015,-722"/>
<polyline fill="none" stroke="gray" points="1015,-722 1015,-564 "/>
<path fill="none" stroke="gray" d="M1015,-564C1015,-558 1021,-552 1027,-552"/>
<text text-anchor="middle" x="1099" y="-720.1" font-family="Times Roman,serif" font-size="11.00" fill="gray">Factory</text>
</g>
<g id="graph6" class="cluster"><title>cluster_\WebinoDebug\Listener</title>
<polyline fill="none" stroke="gray" points="1024,-470 1174,-470 "/>
<path fill="none" stroke="gray" d="M1174,-470C1180,-470 1186,-476 1186,-482"/>
<polyline fill="none" stroke="gray" points="1186,-482 1186,-532 "/>
<path fill="none" stroke="gray" d="M1186,-532C1186,-538 1180,-544 1174,-544"/>
<polyline fill="none" stroke="gray" points="1174,-544 1024,-544 "/>
<path fill="none" stroke="gray" d="M1024,-544C1018,-544 1012,-538 1012,-532"/>
<polyline fill="none" stroke="gray" points="1012,-532 1012,-482 "/>
<path fill="none" stroke="gray" d="M1012,-482C1012,-476 1018,-470 1024,-470"/>
<text text-anchor="middle" x="1099" y="-530.1" font-family="Times Roman,serif" font-size="11.00" fill="gray">Listener</text>
</g>
<g id="graph7" class="cluster"><title>cluster_\WebinoDebug\Debugger</title>
<polyline fill="none" stroke="gray" points="589,-824 1149,-824 "/>
<path fill="none" stroke="gray" d="M1149,-824C1155,-824 1161,-830 1161,-836"/>
<polyline fill="none" stroke="gray" points="1161,-836 1161,-1032 "/>
<path fill="none" stroke="gray" d="M1161,-1032C1161,-1038 1155,-1044 1149,-1044"/>
<polyline fill="none" stroke="gray" points="1149,-1044 589,-1044 "/>
<path fill="none" stroke="gray" d="M589,-1044C583,-1044 577,-1038 577,-1032"/>
<polyline fill="none" stroke="gray" points="577,-1032 577,-836 "/>
<path fill="none" stroke="gray" d="M577,-836C577,-830 583,-824 589,-824"/>
<text text-anchor="middle" x="869" y="-1030.1" font-family="Times Roman,serif" font-size="11.00" fill="gray">Debugger</text>
</g>
<g id="graph8" class="cluster"><title>cluster_\WebinoDebug\Debugger\Bar</title>
<polyline fill="none" stroke="gray" points="597,-832 1141,-832 "/>
<path fill="none" stroke="gray" d="M1141,-832C1147,-832 1153,-838 1153,-844"/>
<polyline fill="none" stroke="gray" points="1153,-844 1153,-1002 "/>
<path fill="none" stroke="gray" d="M1153,-1002C1153,-1008 1147,-1014 1141,-1014"/>
<polyline fill="none" stroke="gray" points="1141,-1014 597,-1014 "/>
<path fill="none" stroke="gray" d="M597,-1014C591,-1014 585,-1008 585,-1002"/>
<polyline fill="none" stroke="gray" points="585,-1002 585,-844 "/>
<path fill="none" stroke="gray" d="M585,-844C585,-838 591,-832 597,-832"/>
<text text-anchor="middle" x="869" y="-1000.1" font-family="Times Roman,serif" font-size="11.00" fill="gray">Bar</text>
</g>
<g id="graph9" class="cluster"><title>cluster_\WebinoDebug\Exception</title>
<polyline fill="none" stroke="gray" points="597,-742 1151,-742 "/>
<path fill="none" stroke="gray" d="M1151,-742C1157,-742 1163,-748 1163,-754"/>
<polyline fill="none" stroke="gray" points="1163,-754 1163,-804 "/>
<path fill="none" stroke="gray" d="M1163,-804C1163,-810 1157,-816 1151,-816"/>
<polyline fill="none" stroke="gray" points="1151,-816 597,-816 "/>
<path fill="none" stroke="gray" d="M597,-816C591,-816 585,-810 585,-804"/>
<polyline fill="none" stroke="gray" points="585,-804 585,-754 "/>
<path fill="none" stroke="gray" d="M585,-754C585,-748 591,-742 597,-742"/>
<text text-anchor="middle" x="874" y="-802.1" font-family="Times Roman,serif" font-size="11.00" fill="gray">Exception</text>
</g>
<g id="graph10" class="cluster"><title>cluster_\WebinoDebug\Tracy</title>
<polyline fill="none" stroke="gray" points="1049,-350 1149,-350 "/>
<path fill="none" stroke="gray" d="M1149,-350C1155,-350 1161,-356 1161,-362"/>
<polyline fill="none" stroke="gray" points="1161,-362 1161,-450 "/>
<path fill="none" stroke="gray" d="M1161,-450C1161,-456 1155,-462 1149,-462"/>
<polyline fill="none" stroke="gray" points="1149,-462 1049,-462 "/>
<path fill="none" stroke="gray" d="M1049,-462C1043,-462 1037,-456 1037,-450"/>
<polyline fill="none" stroke="gray" points="1037,-450 1037,-362 "/>
<path fill="none" stroke="gray" d="M1037,-362C1037,-356 1043,-350 1049,-350"/>
<text text-anchor="middle" x="1099" y="-448.1" font-family="Times Roman,serif" font-size="11.00" fill="gray">Tracy</text>
</g>
<g id="graph11" class="cluster"><title>cluster_\WebinoDebug\Tracy\Workaround</title>
<polyline fill="none" stroke="gray" points="1057,-358 1141,-358 "/>
<path fill="none" stroke="gray" d="M1141,-358C1147,-358 1153,-364 1153,-370"/>
<polyline fill="none" stroke="gray" points="1153,-370 1153,-420 "/>
<path fill="none" stroke="gray" d="M1153,-420C1153,-426 1147,-432 1141,-432"/>
<polyline fill="none" stroke="gray" points="1141,-432 1057,-432 "/>
<path fill="none" stroke="gray" d="M1057,-432C1051,-432 1045,-426 1045,-420"/>
<polyline fill="none" stroke="gray" points="1045,-420 1045,-370 "/>
<path fill="none" stroke="gray" d="M1045,-370C1045,-364 1051,-358 1057,-358"/>
<text text-anchor="middle" x="1099" y="-418.1" font-family="Times Roman,serif" font-size="11.00" fill="gray">Workaround</text>
</g>
<g id="graph12" class="cluster"><title>cluster_\WebinoDebug\Options</title>
<polyline fill="none" stroke="gray" points="607,-268 1147,-268 "/>
<path fill="none" stroke="gray" d="M1147,-268C1153,-268 1159,-274 1159,-280"/>
<polyline fill="none" stroke="gray" points="1159,-280 1159,-330 "/>
<path fill="none" stroke="gray" d="M1159,-330C1159,-336 1153,-342 1147,-342"/>
<polyline fill="none" stroke="gray" points="1147,-342 607,-342 "/>
<path fill="none" stroke="gray" d="M607,-342C601,-342 595,-336 595,-330"/>
<polyline fill="none" stroke="gray" points="595,-330 595,-280 "/>
<path fill="none" stroke="gray" d="M595,-280C595,-274 601,-268 607,-268"/>
<text text-anchor="middle" x="877" y="-328.1" font-family="Times Roman,serif" font-size="11.00" fill="gray">Options</text>
</g>
<!-- \\WebinoDebug\\Service\\EventProfiler -->
<g id="node4" class="node"><title>\\WebinoDebug\\Service\\EventProfiler</title>
<polygon fill="none" stroke="black" points="1151,-1204 1047,-1204 1047,-1168 1151,-1168 1151,-1204"/>
<text text-anchor="middle" x="1099" y="-1183.1" font-family="Courier,monospace" font-size="11.00">EventProfiler</text>
</g>
<!-- \\WebinoDebug\\Service\\NullDebugger -->
<g id="node5" class="node"><title>\\WebinoDebug\\Service\\NullDebugger</title>
<polygon fill="none" stroke="black" points="1148,-1150 1050,-1150 1050,-1114 1148,-1114 1148,-1150"/>
<text text-anchor="middle" x="1099" y="-1129.1" font-family="Courier,monospace" font-size="11.00">NullDebugger</text>
</g>
<!-- \\WebinoDebug\\Service\\DebuggerInterface -->
<g id="node7" class="node"><title>\\WebinoDebug\\Service\\DebuggerInterface</title>
<polygon fill="none" stroke="black" points="727,-1123 597,-1123 597,-1087 727,-1087 727,-1123"/>
<text text-anchor="middle" x="662" y="-1102.1" font-family="Courier,monospace" font-size="11.00">DebuggerInterface</text>
</g>
<!-- \\WebinoDebug\\Service\\NullDebugger&#45;&gt;\\WebinoDebug\\Service\\DebuggerInterface -->
<g id="edge13" class="edge"><title>\\WebinoDebug\\Service\\NullDebugger&#45;&gt;\\WebinoDebug\\Service\\DebuggerInterface</title>
<path fill="none" stroke="black" stroke-dasharray="1,5" d="M1049.72,-1128.96C973.741,-1124.26 827.425,-1115.22 737.873,-1109.69"/>
<polygon fill="none" stroke="black" points="737.976,-1106.19 727.779,-1109.06 737.544,-1113.17 737.976,-1106.19"/>
</g>
<!-- \\WebinoDebug\\Service\\Debugger -->
<g id="node6" class="node"><title>\\WebinoDebug\\Service\\Debugger</title>
<polygon fill="none" stroke="black" points="1134,-1096 1064,-1096 1064,-1060 1134,-1060 1134,-1096"/>
<text text-anchor="middle" x="1099" y="-1075.1" font-family="Courier,monospace" font-size="11.00">Debugger</text>
</g>
<!-- \\WebinoDebug\\Service\\Debugger&#45;&gt;\\WebinoDebug\\Service\\DebuggerInterface -->
<g id="edge15" class="edge"><title>\\WebinoDebug\\Service\\Debugger&#45;&gt;\\WebinoDebug\\Service\\DebuggerInterface</title>
<path fill="none" stroke="black" stroke-dasharray="1,5" d="M1063.24,-1080.21C992.434,-1084.58 833.034,-1094.43 737.833,-1100.31"/>
<polygon fill="none" stroke="black" points="737.454,-1096.83 727.689,-1100.94 737.886,-1103.82 737.454,-1096.83"/>
</g>
<!-- \\WebinoDebug\\Factory\\ModuleOptionsFactory -->
<g id="node9" class="node"><title>\\WebinoDebug\\Factory\\ModuleOptionsFactory</title>
<polygon fill="none" stroke="black" points="1175,-704 1023,-704 1023,-668 1175,-668 1175,-704"/>
<text text-anchor="middle" x="1099" y="-683.1" font-family="Courier,monospace" font-size="11.00">ModuleOptionsFactory</text>
</g>
<!-- \\Zend\\ServiceManager\\FactoryInterface -->
<g id="node35" class="node"><title>\\Zend\\ServiceManager\\FactoryInterface</title>
<ellipse fill="none" stroke="black" cx="662" cy="-126" rx="202.94" ry="18.3848"/>
<text text-anchor="middle" x="662" y="-122.4" font-family="Times Roman,serif" font-size="14.00" fill="gray">\Zend\ServiceManager\FactoryInterface</text>
</g>
<!-- \\WebinoDebug\\Factory\\ModuleOptionsFactory&#45;&gt;\\Zend\\ServiceManager\\FactoryInterface -->
<g id="edge17" class="edge"><title>\\WebinoDebug\\Factory\\ModuleOptionsFactory&#45;&gt;\\Zend\\ServiceManager\\FactoryInterface</title>
<path fill="none" stroke="black" stroke-dasharray="1,5" d="M1022.82,-668.797C1018.81,-665.999 1015.15,-662.757 1012,-659 866.342,-485.311 1110.81,-310.728 948,-153 896.828,-103.425 813.706,-100.771 750.228,-108.109"/>
<polygon fill="none" stroke="black" points="749.702,-104.648 740.216,-109.367 750.575,-111.593 749.702,-104.648"/>
</g>
<!-- \\WebinoDebug\\Factory\\EventProfilerFactory -->
<g id="node10" class="node"><title>\\WebinoDebug\\Factory\\EventProfilerFactory</title>
<polygon fill="none" stroke="black" points="1175,-650 1023,-650 1023,-614 1175,-614 1175,-650"/>
<text text-anchor="middle" x="1099" y="-629.1" font-family="Courier,monospace" font-size="11.00">EventProfilerFactory</text>
</g>
<!-- \\WebinoDebug\\Factory\\DebuggerFactory -->
<g id="node11" class="node"><title>\\WebinoDebug\\Factory\\DebuggerFactory</title>
<polygon fill="none" stroke="black" points="1158,-596 1040,-596 1040,-560 1158,-560 1158,-596"/>
<text text-anchor="middle" x="1099" y="-575.1" font-family="Courier,monospace" font-size="11.00">DebuggerFactory</text>
</g>
<!-- \\WebinoDebug\\Factory\\DebuggerFactory&#45;&gt;\\Zend\\ServiceManager\\FactoryInterface -->
<g id="edge19" class="edge"><title>\\WebinoDebug\\Factory\\DebuggerFactory&#45;&gt;\\Zend\\ServiceManager\\FactoryInterface</title>
<path fill="none" stroke="black" stroke-dasharray="1,5" d="M1039.81,-567.239C1029.25,-562.851 1019.31,-556.678 1012,-548 897.472,-411.94 1077.87,-274.505 948,-153 896.856,-105.149 815.76,-101.672 752.963,-108.284"/>
<polygon fill="none" stroke="black" points="752.186,-104.851 742.654,-109.476 752.99,-111.804 752.186,-104.851"/>
</g>
<!-- \\WebinoDebug\\Listener\\EventProfilerListener -->
<g id="node13" class="node"><title>\\WebinoDebug\\Listener\\EventProfilerListener</title>
<polygon fill="none" stroke="black" points="1178,-514 1020,-514 1020,-478 1178,-478 1178,-514"/>
<text text-anchor="middle" x="1099" y="-493.1" font-family="Courier,monospace" font-size="11.00">EventProfilerListener</text>
</g>
<!-- \\Zend\\EventManager\\SharedListenerAggregateInterface -->
<g id="node40" class="node"><title>\\Zend\\EventManager\\SharedListenerAggregateInterface</title>
<ellipse fill="none" stroke="black" cx="662" cy="-72" rx="285.171" ry="18.3848"/>
<text text-anchor="middle" x="662" y="-68.4" font-family="Times Roman,serif" font-size="14.00" fill="gray">\Zend\EventManager\SharedListenerAggregateInterface</text>
</g>
<!-- \\WebinoDebug\\Listener\\EventProfilerListener&#45;&gt;\\Zend\\EventManager\\SharedListenerAggregateInterface -->
<g id="edge23" class="edge"><title>\\WebinoDebug\\Listener\\EventProfilerListener&#45;&gt;\\Zend\\EventManager\\SharedListenerAggregateInterface</title>
<path fill="none" stroke="black" stroke-dasharray="1,5" d="M1059.82,-477.794C1042.57,-467.825 1023.62,-453.834 1012,-436 928.788,-308.257 1060.72,-201.643 948,-99 898.484,-53.9126 822.23,-48.6949 760.908,-53.9267"/>
<polygon fill="none" stroke="black" points="760.434,-50.456 750.813,-54.8926 761.101,-57.4242 760.434,-50.456"/>
</g>
<!-- \\WebinoDebug\\Debugger\\Bar\\ConfigPanel -->
<g id="node16" class="node"><title>\\WebinoDebug\\Debugger\\Bar\\ConfigPanel</title>
<polygon fill="none" stroke="black" points="1144,-984 1054,-984 1054,-948 1144,-948 1144,-984"/>
<text text-anchor="middle" x="1099" y="-963.1" font-family="Courier,monospace" font-size="11.00">ConfigPanel</text>
</g>
<!-- \\WebinoDebug\\Debugger\\Bar\\AbstractPanel -->
<g id="node18" class="node"><title>\\WebinoDebug\\Debugger\\Bar\\AbstractPanel</title>
<polygon fill="none" stroke="black" points="714,-876 610,-876 610,-840 714,-840 714,-876"/>
<text text-anchor="start" x="628" y="-863.433" font-family="Courier,monospace" font-size="11.00">«abstract»</text>
<text text-anchor="start" x="618" y="-850.233" font-family="Courier,monospace" font-size="11.00">AbstractPanel</text>
</g>
<!-- \\WebinoDebug\\Debugger\\Bar\\ConfigPanel&#45;&gt;\\WebinoDebug\\Debugger\\Bar\\AbstractPanel -->
<g id="edge25" class="edge"><title>\\WebinoDebug\\Debugger\\Bar\\ConfigPanel&#45;&gt;\\WebinoDebug\\Debugger\\Bar\\AbstractPanel</title>
<path fill="none" stroke="black" d="M1053.35,-955.557C1039.59,-951.439 1024.76,-945.987 1012,-939 979.355,-921.128 982.315,-899.407 948,-885 875.731,-854.659 784.408,-851.395 724.662,-853.398"/>
<polygon fill="none" stroke="black" points="724.474,-849.902 714.62,-853.794 724.75,-856.897 724.474,-849.902"/>
</g>
<!-- \\WebinoDebug\\Debugger\\Bar\\PanelInterface -->
<g id="node20" class="node"><title>\\WebinoDebug\\Debugger\\Bar\\PanelInterface</title>
<polygon fill="none" stroke="black" points="717,-930 607,-930 607,-894 717,-894 717,-930"/>
<text text-anchor="middle" x="662" y="-909.1" font-family="Courier,monospace" font-size="11.00">PanelInterface</text>
</g>
<!-- \\WebinoDebug\\Debugger\\Bar\\ConfigPanel&#45;&gt;\\WebinoDebug\\Debugger\\Bar\\PanelInterface -->
<g id="edge27" class="edge"><title>\\WebinoDebug\\Debugger\\Bar\\ConfigPanel&#45;&gt;\\WebinoDebug\\Debugger\\Bar\\PanelInterface</title>
<path fill="none" stroke="black" stroke-dasharray="1,5" d="M1053.23,-956.798C1023.37,-951.047 983.49,-943.84 948,-939 872.713,-928.733 785.742,-921.124 727.659,-916.645"/>
<polygon fill="none" stroke="black" points="727.755,-913.142 717.518,-915.872 727.224,-920.122 727.755,-913.142"/>
</g>
<!-- \\WebinoDebug\\Debugger\\Bar\\PanelInitInterface -->
<g id="node21" class="node"><title>\\WebinoDebug\\Debugger\\Bar\\PanelInitInterface</title>
<polygon fill="none" stroke="black" points="731,-984 593,-984 593,-948 731,-948 731,-984"/>
<text text-anchor="middle" x="662" y="-963.1" font-family="Courier,monospace" font-size="11.00">PanelInitInterface</text>
</g>
<!-- \\WebinoDebug\\Debugger\\Bar\\ConfigPanel&#45;&gt;\\WebinoDebug\\Debugger\\Bar\\PanelInitInterface -->
<g id="edge29" class="edge"><title>\\WebinoDebug\\Debugger\\Bar\\ConfigPanel&#45;&gt;\\WebinoDebug\\Debugger\\Bar\\PanelInitInterface</title>
<path fill="none" stroke="black" stroke-dasharray="1,5" d="M1053.47,-966C979.512,-966 832.367,-966 741.048,-966"/>
<polygon fill="none" stroke="black" points="741.021,-962.5 731.021,-966 741.021,-969.5 741.021,-962.5"/>
</g>
<!-- \\WebinoDebug\\Debugger\\Bar\\InfoPanel -->
<g id="node17" class="node"><title>\\WebinoDebug\\Debugger\\Bar\\InfoPanel</title>
<polygon fill="none" stroke="black" points="1137,-930 1061,-930 1061,-894 1137,-894 1137,-930"/>
<text text-anchor="middle" x="1099" y="-909.1" font-family="Courier,monospace" font-size="11.00">InfoPanel</text>
</g>
<!-- \\WebinoDebug\\Debugger\\Bar\\InfoPanel&#45;&gt;\\WebinoDebug\\Debugger\\Bar\\AbstractPanel -->
<g id="edge31" class="edge"><title>\\WebinoDebug\\Debugger\\Bar\\InfoPanel&#45;&gt;\\WebinoDebug\\Debugger\\Bar\\AbstractPanel</title>
<path fill="none" stroke="black" d="M1060.35,-904.178C1029.92,-898.242 986.393,-890.236 948,-885 871.431,-874.558 782.777,-866.865 724.718,-862.419"/>
<polygon fill="none" stroke="black" points="724.835,-858.918 714.6,-861.653 724.307,-865.898 724.835,-858.918"/>
</g>
<!-- \\WebinoDebug\\Debugger\\Bar\\InfoPanel&#45;&gt;\\WebinoDebug\\Debugger\\Bar\\PanelInterface -->
<g id="edge33" class="edge"><title>\\WebinoDebug\\Debugger\\Bar\\InfoPanel&#45;&gt;\\WebinoDebug\\Debugger\\Bar\\PanelInterface</title>
<path fill="none" stroke="black" stroke-dasharray="1,5" d="M1060.22,-912C985.321,-912 820.026,-912 727.679,-912"/>
<polygon fill="none" stroke="black" points="727.61,-908.5 717.61,-912 727.61,-915.5 727.61,-908.5"/>
</g>
<!-- \\WebinoDebug\\Debugger\\Bar\\InfoPanel&#45;&gt;\\WebinoDebug\\Debugger\\Bar\\PanelInitInterface -->
<g id="edge35" class="edge"><title>\\WebinoDebug\\Debugger\\Bar\\InfoPanel&#45;&gt;\\WebinoDebug\\Debugger\\Bar\\PanelInitInterface</title>
<path fill="none" stroke="black" stroke-dasharray="1,5" d="M1060.35,-919.822C1029.92,-925.758 986.393,-933.764 948,-939 878.424,-948.488 798.869,-955.707 741.357,-960.282"/>
<polygon fill="none" stroke="black" points="740.938,-956.804 731.243,-961.077 741.487,-963.783 740.938,-956.804"/>
</g>
<!-- \\WebinoDebug\\Debugger\\Bar\\EventPanel -->
<g id="node19" class="node"><title>\\WebinoDebug\\Debugger\\Bar\\EventPanel</title>
<polygon fill="none" stroke="black" points="1141,-876 1057,-876 1057,-840 1141,-840 1141,-876"/>
<text text-anchor="middle" x="1099" y="-855.1" font-family="Courier,monospace" font-size="11.00">EventPanel</text>
</g>
<!-- \\WebinoDebug\\Debugger\\Bar\\EventPanel&#45;&gt;\\WebinoDebug\\Debugger\\Bar\\AbstractPanel -->
<g id="edge37" class="edge"><title>\\WebinoDebug\\Debugger\\Bar\\EventPanel&#45;&gt;\\WebinoDebug\\Debugger\\Bar\\AbstractPanel</title>
<path fill="none" stroke="black" d="M1056.7,-858C979.461,-858 815.233,-858 724.864,-858"/>
<polygon fill="none" stroke="black" points="724.754,-854.5 714.754,-858 724.754,-861.5 724.754,-854.5"/>
</g>
<!-- \\WebinoDebug\\Debugger\\Bar\\EventPanel&#45;&gt;\\WebinoDebug\\Debugger\\Bar\\PanelInterface -->
<g id="edge39" class="edge"><title>\\WebinoDebug\\Debugger\\Bar\\EventPanel&#45;&gt;\\WebinoDebug\\Debugger\\Bar\\PanelInterface</title>
<path fill="none" stroke="black" stroke-dasharray="1,5" d="M1056.84,-866.504C1026.64,-872.36 984.942,-879.962 948,-885 872.713,-895.267 785.742,-902.876 727.659,-907.355"/>
<polygon fill="none" stroke="black" points="727.224,-903.878 717.518,-908.128 727.755,-910.858 727.224,-903.878"/>
</g>
<!-- \\Tracy\\IBarPanel -->
<g id="node56" class="node"><title>\\Tracy\\IBarPanel</title>
<ellipse fill="none" stroke="black" cx="152" cy="-912" rx="90.0096" ry="18.3848"/>
<text text-anchor="middle" x="152" y="-908.4" font-family="Times Roman,serif" font-size="14.00" fill="gray">\Tracy\IBarPanel</text>
</g>
<!-- \\WebinoDebug\\Debugger\\Bar\\PanelInterface&#45;&gt;\\Tracy\\IBarPanel -->
<g id="edge49" class="edge"><title>\\WebinoDebug\\Debugger\\Bar\\PanelInterface&#45;&gt;\\Tracy\\IBarPanel</title>
<path fill="none" stroke="black" d="M606.45,-912C521.667,-912 358.678,-912 252.69,-912"/>
<polygon fill="none" stroke="black" points="252.615,-908.5 242.615,-912 252.615,-915.5 252.615,-908.5"/>
</g>
<!-- \\WebinoDebug\\Exception\\LogicException -->
<g id="node23" class="node"><title>\\WebinoDebug\\Exception\\LogicException</title>
<polygon fill="none" stroke="black" points="1154,-786 1044,-786 1044,-750 1154,-750 1154,-786"/>
<text text-anchor="middle" x="1099" y="-765.1" font-family="Courier,monospace" font-size="11.00">LogicException</text>
</g>
<!-- \\WebinoDebug\\Exception\\ExceptionInterface -->
<g id="node24" class="node"><title>\\WebinoDebug\\Exception\\ExceptionInterface</title>
<polygon fill="none" stroke="black" points="731,-786 593,-786 593,-750 731,-750 731,-786"/>
<text text-anchor="middle" x="662" y="-765.1" font-family="Courier,monospace" font-size="11.00">ExceptionInterface</text>
</g>
<!-- \\WebinoDebug\\Exception\\LogicException&#45;&gt;\\WebinoDebug\\Exception\\ExceptionInterface -->
<g id="edge43" class="edge"><title>\\WebinoDebug\\Exception\\LogicException&#45;&gt;\\WebinoDebug\\Exception\\ExceptionInterface</title>
<path fill="none" stroke="black" stroke-dasharray="1,5" d="M1043.21,-768C966.628,-768 828.527,-768 741.247,-768"/>
<polygon fill="none" stroke="black" points="741.125,-764.5 731.125,-768 741.125,-771.5 741.125,-764.5"/>
</g>
<!-- \\LogicException -->
<g id="node50" class="node"><title>\\LogicException</title>
<ellipse fill="none" stroke="black" cx="662" cy="-180" rx="87.1802" ry="18.3848"/>
<text text-anchor="middle" x="662" y="-176.4" font-family="Times Roman,serif" font-size="14.00" fill="gray">\LogicException</text>
</g>
<!-- \\WebinoDebug\\Exception\\LogicException&#45;&gt;\\LogicException -->
<g id="edge41" class="edge"><title>\\WebinoDebug\\Exception\\LogicException&#45;&gt;\\LogicException</title>
<path fill="none" stroke="black" d="M1043.21,-758.809C1031.35,-754.357 1020,-747.763 1012,-738 877.265,-573.574 1086.51,-425.257 948,-264 901.67,-210.062 822.685,-189.825 759.445,-182.651"/>
<polygon fill="none" stroke="black" points="759.747,-179.164 749.438,-181.609 759.022,-186.126 759.747,-179.164"/>
</g>
<!-- \\WebinoDebug\\Tracy\\Workaround\\DisabledBar -->
<g id="node27" class="node"><title>\\WebinoDebug\\Tracy\\Workaround\\DisabledBar</title>
<polygon fill="none" stroke="black" points="1144,-402 1054,-402 1054,-366 1144,-366 1144,-402"/>
<text text-anchor="middle" x="1099" y="-381.1" font-family="Courier,monospace" font-size="11.00">DisabledBar</text>
</g>
<!-- \\WebinoDebug\\Options\\DebuggerOptions -->
<g id="node29" class="node"><title>\\WebinoDebug\\Options\\DebuggerOptions</title>
<polygon fill="none" stroke="black" points="721,-312 603,-312 603,-276 721,-276 721,-312"/>
<text text-anchor="middle" x="662" y="-291.1" font-family="Courier,monospace" font-size="11.00">DebuggerOptions</text>
</g>
<!-- \\Zend\\Stdlib\\AbstractOptions -->
<g id="node53" class="node"><title>\\Zend\\Stdlib\\AbstractOptions</title>
<ellipse fill="none" stroke="black" cx="152" cy="-294" rx="152.028" ry="18.3848"/>
<text text-anchor="middle" x="152" y="-290.4" font-family="Times Roman,serif" font-size="14.00" fill="gray">\Zend\Stdlib\AbstractOptions</text>
</g>
<!-- \\WebinoDebug\\Options\\DebuggerOptions&#45;&gt;\\Zend\\Stdlib\\AbstractOptions -->
<g id="edge45" class="edge"><title>\\WebinoDebug\\Options\\DebuggerOptions&#45;&gt;\\Zend\\Stdlib\\AbstractOptions</title>
<path fill="none" stroke="black" d="M602.998,-294C532.843,-294 412.848,-294 314.263,-294"/>
<polygon fill="none" stroke="black" points="314.184,-290.5 304.184,-294 314.184,-297.5 314.184,-290.5"/>
</g>
<!-- \\WebinoDebug\\Options\\ModuleOptions -->
<g id="node30" class="node"><title>\\WebinoDebug\\Options\\ModuleOptions</title>
<polygon fill="none" stroke="black" points="1151,-312 1047,-312 1047,-276 1151,-276 1151,-312"/>
<text text-anchor="middle" x="1099" y="-291.1" font-family="Courier,monospace" font-size="11.00">ModuleOptions</text>
</g>
<!-- \\WebinoDebug\\Options\\ModuleOptions&#45;&gt;\\WebinoDebug\\Options\\DebuggerOptions -->
<g id="edge47" class="edge"><title>\\WebinoDebug\\Options\\ModuleOptions&#45;&gt;\\WebinoDebug\\Options\\DebuggerOptions</title>
<path fill="none" stroke="black" d="M1046.72,-294C968.052,-294 819.126,-294 731.43,-294"/>
<polygon fill="none" stroke="black" points="731.31,-290.5 721.31,-294 731.31,-297.5 731.31,-290.5"/>
</g>
<!-- \\WebinoDebug\\Module -->
<g id="node31" class="node"><title>\\WebinoDebug\\Module</title>
<polygon fill="none" stroke="black" points="1127,-258 1071,-258 1071,-222 1127,-222 1127,-258"/>
<text text-anchor="middle" x="1099" y="-237.1" font-family="Courier,monospace" font-size="11.00">Module</text>
</g>
<!-- \\Zend\\ModuleManager\\Feature\\InitProviderInterface -->
<g id="node38" class="node"><title>\\Zend\\ModuleManager\\Feature\\InitProviderInterface</title>
<ellipse fill="none" stroke="black" cx="662" cy="-18" rx="265.165" ry="18.3848"/>
<text text-anchor="middle" x="662" y="-14.4" font-family="Times Roman,serif" font-size="14.00" fill="gray">\Zend\ModuleManager\Feature\InitProviderInterface</text>
</g>
<!-- \\WebinoDebug\\Module&#45;&gt;\\Zend\\ModuleManager\\Feature\\InitProviderInterface -->
<g id="edge21" class="edge"><title>\\WebinoDebug\\Module&#45;&gt;\\Zend\\ModuleManager\\Feature\\InitProviderInterface</title>
<path fill="none" stroke="black" stroke-dasharray="1,5" d="M1091.12,-221.715C1072.74,-181.601 1022.84,-86.1783 948,-45 936.509,-38.6777 924.361,-33.3693 911.813,-28.9334"/>
<polygon fill="none" stroke="black" points="912.736,-25.552 902.143,-25.7089 910.522,-32.1925 912.736,-25.552"/>
</g>
</g>
</svg>
