<?xml version="1.0" encoding="UTF-8" standalone="no"?>
<!DOCTYPE svg PUBLIC "-//W3C//DTD SVG 1.1//EN"
 "http://www.w3.org/Graphics/SVG/1.1/DTD/svg11.dtd">
<!-- Generated by graphviz version 2.26.3 (20100126.1600)
 -->
<!-- Title: G Pages: 1 -->
<svg width="824pt" height="452pt"
 viewBox="0.00 0.00 824.00 452.00" xmlns="http://www.w3.org/2000/svg" xmlns:xlink="http://www.w3.org/1999/xlink">
<g id="graph1" class="graph" transform="scale(1 1) rotate(0) translate(4 448)">
<title>G</title>
<polygon fill="white" stroke="white" points="-4,5 -4,-448 821,-448 821,5 -4,5"/>
<g id="graph2" class="cluster"><title>cluster_Global</title>
<polyline fill="none" stroke="gray" points="620,-38 796,-38 "/>
<path fill="none" stroke="gray" d="M796,-38C802,-38 808,-44 808,-50"/>
<polyline fill="none" stroke="gray" points="808,-50 808,-424 "/>
<path fill="none" stroke="gray" d="M808,-424C808,-430 802,-436 796,-436"/>
<polyline fill="none" stroke="gray" points="796,-436 620,-436 "/>
<path fill="none" stroke="gray" d="M620,-436C614,-436 608,-430 608,-424"/>
<polyline fill="none" stroke="gray" points="608,-424 608,-50 "/>
<path fill="none" stroke="gray" d="M608,-50C608,-44 614,-38 620,-38"/>
<text text-anchor="middle" x="708" y="-422.1" font-family="Times Roman,serif" font-size="11.00" fill="gray">Global</text>
</g>
<g id="graph3" class="cluster"><title>cluster_\WebinoDebug</title>
<polyline fill="none" stroke="gray" points="628,-46 788,-46 "/>
<path fill="none" stroke="gray" d="M788,-46C794,-46 800,-52 800,-58"/>
<polyline fill="none" stroke="gray" points="800,-58 800,-394 "/>
<path fill="none" stroke="gray" d="M800,-394C800,-400 794,-406 788,-406"/>
<polyline fill="none" stroke="gray" points="788,-406 628,-406 "/>
<path fill="none" stroke="gray" d="M628,-406C622,-406 616,-400 616,-394"/>
<polyline fill="none" stroke="gray" points="616,-394 616,-58 "/>
<path fill="none" stroke="gray" d="M616,-58C616,-52 622,-46 628,-46"/>
<text text-anchor="middle" x="708" y="-392.1" font-family="Times Roman,serif" font-size="11.00" fill="gray">WebinoDebug</text>
</g>
<g id="graph4" class="cluster"><title>cluster_\WebinoDebug\Tracy</title>
<polyline fill="none" stroke="gray" points="658,-264 758,-264 "/>
<path fill="none" stroke="gray" d="M758,-264C764,-264 770,-270 770,-276"/>
<polyline fill="none" stroke="gray" points="770,-276 770,-364 "/>
<path fill="none" stroke="gray" d="M770,-364C770,-370 764,-376 758,-376"/>
<polyline fill="none" stroke="gray" points="758,-376 658,-376 "/>
<path fill="none" stroke="gray" d="M658,-376C652,-376 646,-370 646,-364"/>
<polyline fill="none" stroke="gray" points="646,-364 646,-276 "/>
<path fill="none" stroke="gray" d="M646,-276C646,-270 652,-264 658,-264"/>
<text text-anchor="middle" x="708" y="-362.1" font-family="Times Roman,serif" font-size="11.00" fill="gray">Tracy</text>
</g>
<g id="graph5" class="cluster"><title>cluster_\WebinoDebug\Tracy\Workaround</title>
<polyline fill="none" stroke="gray" points="666,-272 750,-272 "/>
<path fill="none" stroke="gray" d="M750,-272C756,-272 762,-278 762,-284"/>
<polyline fill="none" stroke="gray" points="762,-284 762,-334 "/>
<path fill="none" stroke="gray" d="M762,-334C762,-340 756,-346 750,-346"/>
<polyline fill="none" stroke="gray" points="750,-346 666,-346 "/>
<path fill="none" stroke="gray" d="M666,-346C660,-346 654,-340 654,-334"/>
<polyline fill="none" stroke="gray" points="654,-334 654,-284 "/>
<path fill="none" stroke="gray" d="M654,-284C654,-278 660,-272 666,-272"/>
<text text-anchor="middle" x="708" y="-332.1" font-family="Times Roman,serif" font-size="11.00" fill="gray">Workaround</text>
</g>
<g id="graph6" class="cluster"><title>cluster_\WebinoDebug\Options</title>
<polyline fill="none" stroke="gray" points="660,-182 756,-182 "/>
<path fill="none" stroke="gray" d="M756,-182C762,-182 768,-188 768,-194"/>
<polyline fill="none" stroke="gray" points="768,-194 768,-244 "/>
<path fill="none" stroke="gray" d="M768,-244C768,-250 762,-256 756,-256"/>
<polyline fill="none" stroke="gray" points="756,-256 660,-256 "/>
<path fill="none" stroke="gray" d="M660,-256C654,-256 648,-250 648,-244"/>
<polyline fill="none" stroke="gray" points="648,-244 648,-194 "/>
<path fill="none" stroke="gray" d="M648,-194C648,-188 654,-182 660,-182"/>
<text text-anchor="middle" x="708" y="-242.1" font-family="Times Roman,serif" font-size="11.00" fill="gray">Options</text>
</g>
<g id="graph7" class="cluster"><title>cluster_\WebinoDebug\Factory</title>
<polyline fill="none" stroke="gray" points="636,-100 780,-100 "/>
<path fill="none" stroke="gray" d="M780,-100C786,-100 792,-106 792,-112"/>
<polyline fill="none" stroke="gray" points="792,-112 792,-162 "/>
<path fill="none" stroke="gray" d="M792,-162C792,-168 786,-174 780,-174"/>
<polyline fill="none" stroke="gray" points="780,-174 636,-174 "/>
<path fill="none" stroke="gray" d="M636,-174C630,-174 624,-168 624,-162"/>
<polyline fill="none" stroke="gray" points="624,-162 624,-112 "/>
<path fill="none" stroke="gray" d="M624,-112C624,-106 630,-100 636,-100"/>
<text text-anchor="middle" x="708" y="-160.1" font-family="Times Roman,serif" font-size="11.00" fill="gray">Factory</text>
</g>
<!-- \\WebinoDebug\\Tracy\\Workaround\\DisabledBar -->
<g id="node5" class="node"><title>\\WebinoDebug\\Tracy\\Workaround\\DisabledBar</title>
<polygon fill="none" stroke="black" points="753,-316 663,-316 663,-280 753,-280 753,-316"/>
<text text-anchor="middle" x="708" y="-295.1" font-family="Courier,monospace" font-size="11.00">DisabledBar</text>
</g>
<!-- \\WebinoDebug\\Options\\ModuleOptions -->
<g id="node7" class="node"><title>\\WebinoDebug\\Options\\ModuleOptions</title>
<polygon fill="none" stroke="black" points="760,-226 656,-226 656,-190 760,-190 760,-226"/>
<text text-anchor="middle" x="708" y="-205.1" font-family="Courier,monospace" font-size="11.00">ModuleOptions</text>
</g>
<!-- \\Zend\\Stdlib\\AbstractOptions -->
<g id="node12" class="node"><title>\\Zend\\Stdlib\\AbstractOptions</title>
<ellipse fill="none" stroke="black" cx="280" cy="-208" rx="152.028" ry="18.3848"/>
<text text-anchor="middle" x="280" y="-204.4" font-family="Times Roman,serif" font-size="14.00" fill="gray">\Zend\Stdlib\AbstractOptions</text>
</g>
<!-- \\WebinoDebug\\Options\\ModuleOptions&#45;&gt;\\Zend\\Stdlib\\AbstractOptions -->
<g id="edge8" class="edge"><title>\\WebinoDebug\\Options\\ModuleOptions&#45;&gt;\\Zend\\Stdlib\\AbstractOptions</title>
<path fill="none" stroke="black" d="M655.947,-208C602.965,-208 518.09,-208 442.381,-208"/>
<polygon fill="none" stroke="black" points="442.243,-204.5 432.243,-208 442.243,-211.5 442.243,-204.5"/>
</g>
<!-- \\WebinoDebug\\Factory\\ModuleOptionsFactory -->
<g id="node9" class="node"><title>\\WebinoDebug\\Factory\\ModuleOptionsFactory</title>
<polygon fill="none" stroke="black" points="784,-144 632,-144 632,-108 784,-108 784,-144"/>
<text text-anchor="middle" x="708" y="-123.1" font-family="Courier,monospace" font-size="11.00">ModuleOptionsFactory</text>
</g>
<!-- \\Zend\\ServiceManager\\FactoryInterface -->
<g id="node18" class="node"><title>\\Zend\\ServiceManager\\FactoryInterface</title>
<ellipse fill="none" stroke="black" cx="280" cy="-126" rx="202.94" ry="18.3848"/>
<text text-anchor="middle" x="280" y="-122.4" font-family="Times Roman,serif" font-size="14.00" fill="gray">\Zend\ServiceManager\FactoryInterface</text>
</g>
<!-- \\WebinoDebug\\Factory\\ModuleOptionsFactory&#45;&gt;\\Zend\\ServiceManager\\FactoryInterface -->
<g id="edge14" class="edge"><title>\\WebinoDebug\\Factory\\ModuleOptionsFactory&#45;&gt;\\Zend\\ServiceManager\\FactoryInterface</title>
<path fill="none" stroke="black" stroke-dasharray="1,5" d="M631.975,-126C592.872,-126 543.054,-126 493.287,-126"/>
<polygon fill="none" stroke="black" points="493.006,-122.5 483.006,-126 493.006,-129.5 493.006,-122.5"/>
</g>
<!-- \\WebinoDebug\\Module -->
<g id="node10" class="node"><title>\\WebinoDebug\\Module</title>
<polygon fill="none" stroke="black" points="736,-90 680,-90 680,-54 736,-54 736,-90"/>
<text text-anchor="middle" x="708" y="-69.1" font-family="Courier,monospace" font-size="11.00">Module</text>
</g>
<!-- \\Zend\\ModuleManager\\Feature\\InitProviderInterface -->
<g id="node14" class="node"><title>\\Zend\\ModuleManager\\Feature\\InitProviderInterface</title>
<ellipse fill="none" stroke="black" cx="280" cy="-72" rx="265.165" ry="18.3848"/>
<text text-anchor="middle" x="280" y="-68.4" font-family="Times Roman,serif" font-size="14.00" fill="gray">\Zend\ModuleManager\Feature\InitProviderInterface</text>
</g>
<!-- \\WebinoDebug\\Module&#45;&gt;\\Zend\\ModuleManager\\Feature\\InitProviderInterface -->
<g id="edge10" class="edge"><title>\\WebinoDebug\\Module&#45;&gt;\\Zend\\ModuleManager\\Feature\\InitProviderInterface</title>
<path fill="none" stroke="black" stroke-dasharray="1,5" d="M679.253,-72C651.315,-72 605.803,-72 555.319,-72"/>
<polygon fill="none" stroke="black" points="555.159,-68.5001 545.159,-72 555.159,-75.5001 555.159,-68.5001"/>
</g>
<!-- \\Zend\\ModuleManager\\Feature\\ConfigProviderInterface -->
<g id="node16" class="node"><title>\\Zend\\ModuleManager\\Feature\\ConfigProviderInterface</title>
<ellipse fill="none" stroke="black" cx="280" cy="-18" rx="278.808" ry="18.3848"/>
<text text-anchor="middle" x="280" y="-14.4" font-family="Times Roman,serif" font-size="14.00" fill="gray">\Zend\ModuleManager\Feature\ConfigProviderInterface</text>
</g>
<!-- \\WebinoDebug\\Module&#45;&gt;\\Zend\\ModuleManager\\Feature\\ConfigProviderInterface -->
<g id="edge12" class="edge"><title>\\WebinoDebug\\Module&#45;&gt;\\Zend\\ModuleManager\\Feature\\ConfigProviderInterface</title>
<path fill="none" stroke="black" stroke-dasharray="1,5" d="M679.466,-66.0558C649.746,-60.0384 601.779,-50.8147 560,-45 528.329,-40.5921 494.542,-36.6727 461.793,-33.2803"/>
<polygon fill="none" stroke="black" points="461.971,-29.7803 451.666,-32.2444 461.258,-36.7439 461.971,-29.7803"/>
</g>
</g>
</svg>
