<?xml version="1.0" encoding="UTF-8" standalone="no"?>
<!DOCTYPE svg PUBLIC "-//W3C//DTD SVG 1.1//EN"
 "http://www.w3.org/Graphics/SVG/1.1/DTD/svg11.dtd">
<!-- Generated by graphviz version 2.26.3 (20100126.1600)
 -->
<!-- Title: G Pages: 1 -->
<svg width="824pt" height="452pt"
 viewBox="0.00 0.00 824.00 452.00" xmlns="http://www.w3.org/2000/svg" xmlns:xlink="http://www.w3.org/1999/xlink">
<g id="graph1" class="graph" transform="scale(1 1) rotate(0) translate(4 448)">
<title>G</title>
<polygon fill="white" stroke="white" points="-4,5 -4,-448 821,-448 821,5 -4,5"/>
<g id="graph2" class="cluster"><title>cluster_Global</title>
<polyline fill="none" stroke="gray" points="620,-38 796,-38 "/>
<path fill="none" stroke="gray" d="M796,-38C802,-38 808,-44 808,-50"/>
<polyline fill="none" stroke="gray" points="808,-50 808,-424 "/>
<path fill="none" stroke="gray" d="M808,-424C808,-430 802,-436 796,-436"/>
<polyline fill="none" stroke="gray" points="796,-436 620,-436 "/>
<path fill="none" stroke="gray" d="M620,-436C614,-436 608,-430 608,-424"/>
<polyline fill="none" stroke="gray" points="608,-424 608,-50 "/>
<path fill="none" stroke="gray" d="M608,-50C608,-44 614,-38 620,-38"/>
<text text-anchor="middle" x="708" y="-422.1" font-family="Times Roman,serif" font-size="11.00" fill="gray">Global</text>
</g>
<g id="graph3" class="cluster"><title>cluster_\WebinoDebug</title>
<polyline fill="none" stroke="gray" points="628,-46 788,-46 "/>
<path fill="none" stroke="gray" d="M788,-46C794,-46 800,-52 800,-58"/>
<polyline fill="none" stroke="gray" points="800,-58 800,-394 "/>
<path fill="none" stroke="gray" d="M800,-394C800,-400 794,-406 788,-406"/>
<polyline fill="none" stroke="gray" points="788,-406 628,-406 "/>
<path fill="none" stroke="gray" d="M628,-406C622,-406 616,-400 616,-394"/>
<polyline fill="none" stroke="gray" points="616,-394 616,-58 "/>
<path fill="none" stroke="gray" d="M616,-58C616,-52 622,-46 628,-46"/>
<text text-anchor="middle" x="708" y="-392.1" font-family="Times Roman,serif" font-size="11.00" fill="gray">WebinoDebug</text>
</g>
<g id="graph4" class="cluster"><title>cluster_\WebinoDebug\Factory</title>
<polyline fill="none" stroke="gray" points="636,-302 780,-302 "/>
<path fill="none" stroke="gray" d="M780,-302C786,-302 792,-308 792,-314"/>
<polyline fill="none" stroke="gray" points="792,-314 792,-364 "/>
<path fill="none" stroke="gray" d="M792,-364C792,-370 786,-376 780,-376"/>
<polyline fill="none" stroke="gray" points="780,-376 636,-376 "/>
<path fill="none" stroke="gray" d="M636,-376C630,-376 624,-370 624,-364"/>
<polyline fill="none" stroke="gray" points="624,-364 624,-314 "/>
<path fill="none" stroke="gray" d="M624,-314C624,-308 630,-302 636,-302"/>
<text text-anchor="middle" x="708" y="-362.1" font-family="Times Roman,serif" font-size="11.00" fill="gray">Factory</text>
</g>
<g id="graph5" class="cluster"><title>cluster_\WebinoDebug\Tracy</title>
<polyline fill="none" stroke="gray" points="658,-182 758,-182 "/>
<path fill="none" stroke="gray" d="M758,-182C764,-182 770,-188 770,-194"/>
<polyline fill="none" stroke="gray" points="770,-194 770,-282 "/>
<path fill="none" stroke="gray" d="M770,-282C770,-288 764,-294 758,-294"/>
<polyline fill="none" stroke="gray" points="758,-294 658,-294 "/>
<path fill="none" stroke="gray" d="M658,-294C652,-294 646,-288 646,-282"/>
<polyline fill="none" stroke="gray" points="646,-282 646,-194 "/>
<path fill="none" stroke="gray" d="M646,-194C646,-188 652,-182 658,-182"/>
<text text-anchor="middle" x="708" y="-280.1" font-family="Times Roman,serif" font-size="11.00" fill="gray">Tracy</text>
</g>
<g id="graph6" class="cluster"><title>cluster_\WebinoDebug\Tracy\Workaround</title>
<polyline fill="none" stroke="gray" points="666,-190 750,-190 "/>
<path fill="none" stroke="gray" d="M750,-190C756,-190 762,-196 762,-202"/>
<polyline fill="none" stroke="gray" points="762,-202 762,-252 "/>
<path fill="none" stroke="gray" d="M762,-252C762,-258 756,-264 750,-264"/>
<polyline fill="none" stroke="gray" points="750,-264 666,-264 "/>
<path fill="none" stroke="gray" d="M666,-264C660,-264 654,-258 654,-252"/>
<polyline fill="none" stroke="gray" points="654,-252 654,-202 "/>
<path fill="none" stroke="gray" d="M654,-202C654,-196 660,-190 666,-190"/>
<text text-anchor="middle" x="708" y="-250.1" font-family="Times Roman,serif" font-size="11.00" fill="gray">Workaround</text>
</g>
<g id="graph7" class="cluster"><title>cluster_\WebinoDebug\Options</title>
<polyline fill="none" stroke="gray" points="660,-100 756,-100 "/>
<path fill="none" stroke="gray" d="M756,-100C762,-100 768,-106 768,-112"/>
<polyline fill="none" stroke="gray" points="768,-112 768,-162 "/>
<path fill="none" stroke="gray" d="M768,-162C768,-168 762,-174 756,-174"/>
<polyline fill="none" stroke="gray" points="756,-174 660,-174 "/>
<path fill="none" stroke="gray" d="M660,-174C654,-174 648,-168 648,-162"/>
<polyline fill="none" stroke="gray" points="648,-162 648,-112 "/>
<path fill="none" stroke="gray" d="M648,-112C648,-106 654,-100 660,-100"/>
<text text-anchor="middle" x="708" y="-160.1" font-family="Times Roman,serif" font-size="11.00" fill="gray">Options</text>
</g>
<!-- \\WebinoDebug\\Factory\\ModuleOptionsFactory -->
<g id="node4" class="node"><title>\\WebinoDebug\\Factory\\ModuleOptionsFactory</title>
<polygon fill="none" stroke="black" points="784,-346 632,-346 632,-310 784,-310 784,-346"/>
<text text-anchor="middle" x="708" y="-325.1" font-family="Courier,monospace" font-size="11.00">ModuleOptionsFactory</text>
</g>
<!-- \\Zend\\ServiceManager\\FactoryInterface -->
<g id="node16" class="node"><title>\\Zend\\ServiceManager\\FactoryInterface</title>
<ellipse fill="none" stroke="black" cx="280" cy="-328" rx="202.94" ry="18.3848"/>
<text text-anchor="middle" x="280" y="-324.4" font-family="Times Roman,serif" font-size="14.00" fill="gray">\Zend\ServiceManager\FactoryInterface</text>
</g>
<!-- \\WebinoDebug\\Factory\\ModuleOptionsFactory&#45;&gt;\\Zend\\ServiceManager\\FactoryInterface -->
<g id="edge12" class="edge"><title>\\WebinoDebug\\Factory\\ModuleOptionsFactory&#45;&gt;\\Zend\\ServiceManager\\FactoryInterface</title>
<path fill="none" stroke="black" stroke-dasharray="1,5" d="M631.975,-328C592.872,-328 543.054,-328 493.287,-328"/>
<polygon fill="none" stroke="black" points="493.006,-324.5 483.006,-328 493.006,-331.5 493.006,-324.5"/>
</g>
<!-- \\WebinoDebug\\Tracy\\Workaround\\DisabledBar -->
<g id="node7" class="node"><title>\\WebinoDebug\\Tracy\\Workaround\\DisabledBar</title>
<polygon fill="none" stroke="black" points="753,-234 663,-234 663,-198 753,-198 753,-234"/>
<text text-anchor="middle" x="708" y="-213.1" font-family="Courier,monospace" font-size="11.00">DisabledBar</text>
</g>
<!-- \\WebinoDebug\\Options\\ModuleOptions -->
<g id="node9" class="node"><title>\\WebinoDebug\\Options\\ModuleOptions</title>
<polygon fill="none" stroke="black" points="760,-144 656,-144 656,-108 760,-108 760,-144"/>
<text text-anchor="middle" x="708" y="-123.1" font-family="Courier,monospace" font-size="11.00">ModuleOptions</text>
</g>
<!-- \\Zend\\Stdlib\\AbstractOptions -->
<g id="node18" class="node"><title>\\Zend\\Stdlib\\AbstractOptions</title>
<ellipse fill="none" stroke="black" cx="280" cy="-126" rx="152.028" ry="18.3848"/>
<text text-anchor="middle" x="280" y="-122.4" font-family="Times Roman,serif" font-size="14.00" fill="gray">\Zend\Stdlib\AbstractOptions</text>
</g>
<!-- \\WebinoDebug\\Options\\ModuleOptions&#45;&gt;\\Zend\\Stdlib\\AbstractOptions -->
<g id="edge14" class="edge"><title>\\WebinoDebug\\Options\\ModuleOptions&#45;&gt;\\Zend\\Stdlib\\AbstractOptions</title>
<path fill="none" stroke="black" d="M655.947,-126C602.965,-126 518.09,-126 442.381,-126"/>
<polygon fill="none" stroke="black" points="442.243,-122.5 432.243,-126 442.243,-129.5 442.243,-122.5"/>
</g>
<!-- \\WebinoDebug\\Module -->
<g id="node10" class="node"><title>\\WebinoDebug\\Module</title>
<polygon fill="none" stroke="black" points="736,-90 680,-90 680,-54 736,-54 736,-90"/>
<text text-anchor="middle" x="708" y="-69.1" font-family="Courier,monospace" font-size="11.00">Module</text>
</g>
<!-- \\Zend\\ModuleManager\\Feature\\InitProviderInterface -->
<g id="node12" class="node"><title>\\Zend\\ModuleManager\\Feature\\InitProviderInterface</title>
<ellipse fill="none" stroke="black" cx="280" cy="-72" rx="265.165" ry="18.3848"/>
<text text-anchor="middle" x="280" y="-68.4" font-family="Times Roman,serif" font-size="14.00" fill="gray">\Zend\ModuleManager\Feature\InitProviderInterface</text>
</g>
<!-- \\WebinoDebug\\Module&#45;&gt;\\Zend\\ModuleManager\\Feature\\InitProviderInterface -->
<g id="edge8" class="edge"><title>\\WebinoDebug\\Module&#45;&gt;\\Zend\\ModuleManager\\Feature\\InitProviderInterface</title>
<path fill="none" stroke="black" stroke-dasharray="1,5" d="M679.253,-72C651.315,-72 605.803,-72 555.319,-72"/>
<polygon fill="none" stroke="black" points="555.159,-68.5001 545.159,-72 555.159,-75.5001 555.159,-68.5001"/>
</g>
<!-- \\Zend\\ModuleManager\\Feature\\ConfigProviderInterface -->
<g id="node14" class="node"><title>\\Zend\\ModuleManager\\Feature\\ConfigProviderInterface</title>
<ellipse fill="none" stroke="black" cx="280" cy="-18" rx="278.808" ry="18.3848"/>
<text text-anchor="middle" x="280" y="-14.4" font-family="Times Roman,serif" font-size="14.00" fill="gray">\Zend\ModuleManager\Feature\ConfigProviderInterface</text>
</g>
<!-- \\WebinoDebug\\Module&#45;&gt;\\Zend\\ModuleManager\\Feature\\ConfigProviderInterface -->
<g id="edge10" class="edge"><title>\\WebinoDebug\\Module&#45;&gt;\\Zend\\ModuleManager\\Feature\\ConfigProviderInterface</title>
<path fill="none" stroke="black" stroke-dasharray="1,5" d="M679.466,-66.0558C649.746,-60.0384 601.779,-50.8147 560,-45 528.329,-40.5921 494.542,-36.6727 461.793,-33.2803"/>
<polygon fill="none" stroke="black" points="461.971,-29.7803 451.666,-32.2444 461.258,-36.7439 461.971,-29.7803"/>
</g>
</g>
</svg>
