<?xml version="1.0" encoding="UTF-8" standalone="no"?>
<!DOCTYPE svg PUBLIC "-//W3C//DTD SVG 1.1//EN"
 "http://www.w3.org/Graphics/SVG/1.1/DTD/svg11.dtd">
<!-- Generated by graphviz version 2.36.0 (20140111.2315)
 -->
<!-- Title: G Pages: 1 -->
<svg width="976pt" height="1172pt"
 viewBox="0.00 0.00 976.00 1172.00" xmlns="http://www.w3.org/2000/svg" xmlns:xlink="http://www.w3.org/1999/xlink">
<g id="graph0" class="graph" transform="scale(1 1) rotate(0) translate(4 1168)">
<title>G</title>
<polygon fill="white" stroke="none" points="-4,4 -4,-1168 972,-1168 972,4 -4,4"/>
<g id="clust1" class="cluster"><title>cluster_Global</title>
<path fill="none" stroke="gray" d="M415,-206C415,-206 948,-206 948,-206 954,-206 960,-212 960,-218 960,-218 960,-1144 960,-1144 960,-1150 954,-1156 948,-1156 948,-1156 415,-1156 415,-1156 409,-1156 403,-1150 403,-1144 403,-1144 403,-218 403,-218 403,-212 409,-206 415,-206"/>
<text text-anchor="middle" x="681.5" y="-1143.2" font-family="Times,serif" font-size="11.00" fill="gray">Global</text>
</g>
<g id="clust2" class="cluster"><title>cluster_\WebinoDebug</title>
<path fill="none" stroke="gray" d="M423,-214C423,-214 940,-214 940,-214 946,-214 952,-220 952,-226 952,-226 952,-1116 952,-1116 952,-1122 946,-1128 940,-1128 940,-1128 423,-1128 423,-1128 417,-1128 411,-1122 411,-1116 411,-1116 411,-226 411,-226 411,-220 417,-214 423,-214"/>
<text text-anchor="middle" x="681.5" y="-1115.2" font-family="Times,serif" font-size="11.00" fill="gray">WebinoDebug</text>
</g>
<g id="clust3" class="cluster"><title>cluster_\WebinoDebug\Listener</title>
<path fill="none" stroke="gray" d="M782,-456C782,-456 932,-456 932,-456 938,-456 944,-462 944,-468 944,-468 944,-516 944,-516 944,-522 938,-528 932,-528 932,-528 782,-528 782,-528 776,-528 770,-522 770,-516 770,-516 770,-468 770,-468 770,-462 776,-456 782,-456"/>
<text text-anchor="middle" x="857" y="-515.2" font-family="Times,serif" font-size="11.00" fill="gray">Listener</text>
</g>
<g id="clust4" class="cluster"><title>cluster_\WebinoDebug\Options</title>
<path fill="none" stroke="gray" d="M449,-1028C449,-1028 905,-1028 905,-1028 911,-1028 917,-1034 917,-1040 917,-1040 917,-1088 917,-1088 917,-1094 911,-1100 905,-1100 905,-1100 449,-1100 449,-1100 443,-1100 437,-1094 437,-1088 437,-1088 437,-1040 437,-1040 437,-1034 443,-1028 449,-1028"/>
<text text-anchor="middle" x="677" y="-1087.2" font-family="Times,serif" font-size="11.00" fill="gray">Options</text>
</g>
<g id="clust5" class="cluster"><title>cluster_\WebinoDebug\Factory</title>
<path fill="none" stroke="gray" d="M785,-268C785,-268 929,-268 929,-268 935,-268 941,-274 941,-280 941,-280 941,-436 941,-436 941,-442 935,-448 929,-448 929,-448 785,-448 785,-448 779,-448 773,-442 773,-436 773,-436 773,-280 773,-280 773,-274 779,-268 785,-268"/>
<text text-anchor="middle" x="857" y="-435.2" font-family="Times,serif" font-size="11.00" fill="gray">Factory</text>
</g>
<g id="clust6" class="cluster"><title>cluster_\WebinoDebug\Service</title>
<path fill="none" stroke="gray" d="M442,-840C442,-840 905,-840 905,-840 911,-840 917,-846 917,-852 917,-852 917,-1008 917,-1008 917,-1014 911,-1020 905,-1020 905,-1020 442,-1020 442,-1020 436,-1020 430,-1014 430,-1008 430,-1008 430,-852 430,-852 430,-846 436,-840 442,-840"/>
<text text-anchor="middle" x="673.5" y="-1007.2" font-family="Times,serif" font-size="11.00" fill="gray">Service</text>
</g>
<g id="clust7" class="cluster"><title>cluster_\WebinoDebug\Debugger</title>
<path fill="none" stroke="gray" d="M431,-616C431,-616 907,-616 907,-616 913,-616 919,-622 919,-628 919,-628 919,-820 919,-820 919,-826 913,-832 907,-832 907,-832 431,-832 431,-832 425,-832 419,-826 419,-820 419,-820 419,-628 419,-628 419,-622 425,-616 431,-616"/>
<text text-anchor="middle" x="669" y="-819.2" font-family="Times,serif" font-size="11.00" fill="gray">Debugger</text>
</g>
<g id="clust8" class="cluster"><title>cluster_\WebinoDebug\Debugger\Bar</title>
<path fill="none" stroke="gray" d="M439,-624C439,-624 899,-624 899,-624 905,-624 911,-630 911,-636 911,-636 911,-792 911,-792 911,-798 905,-804 899,-804 899,-804 439,-804 439,-804 433,-804 427,-798 427,-792 427,-792 427,-636 427,-636 427,-630 433,-624 439,-624"/>
<text text-anchor="middle" x="669" y="-791.2" font-family="Times,serif" font-size="11.00" fill="gray">Bar</text>
</g>
<g id="clust9" class="cluster"><title>cluster_\WebinoDebug\Exception</title>
<path fill="none" stroke="gray" d="M439,-536C439,-536 909,-536 909,-536 915,-536 921,-542 921,-548 921,-548 921,-596 921,-596 921,-602 915,-608 909,-608 909,-608 439,-608 439,-608 433,-608 427,-602 427,-596 427,-596 427,-548 427,-548 427,-542 433,-536 439,-536"/>
<text text-anchor="middle" x="674" y="-595.2" font-family="Times,serif" font-size="11.00" fill="gray">Exception</text>
</g>
<!-- \\WebinoDebug\\Listener\\EventProfilerListener -->
<g id="node1" class="node"><title>\\WebinoDebug\\Listener\\EventProfilerListener</title>
<polygon fill="none" stroke="black" points="936,-500 778,-500 778,-464 936,-464 936,-500"/>
<text text-anchor="middle" x="857" y="-479.2" font-family="Courier,monospace" font-size="11.00">EventProfilerListener</text>
</g>
<!-- \\Zend\\EventManager\\SharedListenerAggregateInterface -->
<g id="node20" class="node"><title>\\Zend\\EventManager\\SharedListenerAggregateInterface</title>
<ellipse fill="none" stroke="black" cx="504" cy="-126" rx="201.464" ry="18"/>
<text text-anchor="middle" x="504" y="-122.3" font-family="Times,serif" font-size="14.00" fill="gray">\ZendventManager\SharedListenerAggregateInterface</text>
</g>
<!-- \\WebinoDebug\\Listener\\EventProfilerListener&#45;&gt;\\Zend\\EventManager\\SharedListenerAggregateInterface -->
<g id="edge1" class="edge"><title>\\WebinoDebug\\Listener\\EventProfilerListener&#45;&gt;\\Zend\\EventManager\\SharedListenerAggregateInterface</title>
<path fill="none" stroke="black" stroke-dasharray="1,5" d="M784.175,-463.844C778.913,-460.536 774.08,-456.624 770,-452 680.083,-350.101 805.738,-245.308 706,-153 700.705,-148.099 694.969,-143.81 688.898,-140.066"/>
<polygon fill="none" stroke="black" points="690.211,-136.79 679.775,-134.962 686.793,-142.899 690.211,-136.79"/>
</g>
<!-- \\WebinoDebug\\Options\\ModuleOptions -->
<g id="node2" class="node"><title>\\WebinoDebug\\Options\\ModuleOptions</title>
<polygon fill="none" stroke="black" points="909,-1072 805,-1072 805,-1036 909,-1036 909,-1072"/>
<text text-anchor="middle" x="857" y="-1051.2" font-family="Courier,monospace" font-size="11.00">ModuleOptions</text>
</g>
<!-- \\WebinoDebug\\Options\\DebuggerOptions -->
<g id="node3" class="node"><title>\\WebinoDebug\\Options\\DebuggerOptions</title>
<polygon fill="none" stroke="black" points="563,-1072 445,-1072 445,-1036 563,-1036 563,-1072"/>
<text text-anchor="middle" x="504" y="-1051.2" font-family="Courier,monospace" font-size="11.00">DebuggerOptions</text>
</g>
<!-- \\WebinoDebug\\Options\\ModuleOptions&#45;&gt;\\WebinoDebug\\Options\\DebuggerOptions -->
<g id="edge2" class="edge"><title>\\WebinoDebug\\Options\\ModuleOptions&#45;&gt;\\WebinoDebug\\Options\\DebuggerOptions</title>
<path fill="none" stroke="black" d="M804.962,-1054C743.834,-1054 641.202,-1054 573.291,-1054"/>
<polygon fill="none" stroke="black" points="573.117,-1050.5 563.117,-1054 573.117,-1057.5 573.117,-1050.5"/>
</g>
<!-- \\Zend\\Stdlib\\AbstractOptions -->
<g id="node21" class="node"><title>\\Zend\\Stdlib\\AbstractOptions</title>
<ellipse fill="none" stroke="black" cx="115" cy="-1054" rx="114.28" ry="18"/>
<text text-anchor="middle" x="115" y="-1050.3" font-family="Times,serif" font-size="14.00" fill="gray">\Zend\Stdlib\AbstractOptions</text>
</g>
<!-- \\WebinoDebug\\Options\\DebuggerOptions&#45;&gt;\\Zend\\Stdlib\\AbstractOptions -->
<g id="edge3" class="edge"><title>\\WebinoDebug\\Options\\DebuggerOptions&#45;&gt;\\Zend\\Stdlib\\AbstractOptions</title>
<path fill="none" stroke="black" d="M444.643,-1054C390.505,-1054 308.176,-1054 239.465,-1054"/>
<polygon fill="none" stroke="black" points="239.432,-1050.5 229.432,-1054 239.432,-1057.5 239.432,-1050.5"/>
</g>
<!-- \\WebinoDebug\\Factory\\EventProfilerFactory -->
<g id="node4" class="node"><title>\\WebinoDebug\\Factory\\EventProfilerFactory</title>
<polygon fill="none" stroke="black" points="933,-420 781,-420 781,-384 933,-384 933,-420"/>
<text text-anchor="middle" x="857" y="-399.2" font-family="Courier,monospace" font-size="11.00">EventProfilerFactory</text>
</g>
<!-- \\WebinoDebug\\Factory\\ModuleOptionsFactory -->
<g id="node5" class="node"><title>\\WebinoDebug\\Factory\\ModuleOptionsFactory</title>
<polygon fill="none" stroke="black" points="933,-366 781,-366 781,-330 933,-330 933,-366"/>
<text text-anchor="middle" x="857" y="-345.2" font-family="Courier,monospace" font-size="11.00">ModuleOptionsFactory</text>
</g>
<!-- \\Zend\\ServiceManager\\FactoryInterface -->
<g id="node22" class="node"><title>\\Zend\\ServiceManager\\FactoryInterface</title>
<ellipse fill="none" stroke="black" cx="504" cy="-72" rx="152.173" ry="18"/>
<text text-anchor="middle" x="504" y="-68.3" font-family="Times,serif" font-size="14.00" fill="gray">\Zend\ServiceManager\FactoryInterface</text>
</g>
<!-- \\WebinoDebug\\Factory\\ModuleOptionsFactory&#45;&gt;\\Zend\\ServiceManager\\FactoryInterface -->
<g id="edge4" class="edge"><title>\\WebinoDebug\\Factory\\ModuleOptionsFactory&#45;&gt;\\Zend\\ServiceManager\\FactoryInterface</title>
<path fill="none" stroke="black" stroke-dasharray="1,5" d="M780.936,-329.878C776.973,-327.301 773.28,-324.359 770,-321 698.25,-247.542 783.75,-166.075 706,-99 694.191,-88.8121 680.45,-81.3414 665.8,-75.9528"/>
<polygon fill="none" stroke="black" points="666.646,-72.5457 656.053,-72.7047 664.433,-79.1867 666.646,-72.5457"/>
</g>
<!-- \\WebinoDebug\\Factory\\DebuggerFactory -->
<g id="node6" class="node"><title>\\WebinoDebug\\Factory\\DebuggerFactory</title>
<polygon fill="none" stroke="black" points="916,-312 798,-312 798,-276 916,-276 916,-312"/>
<text text-anchor="middle" x="857" y="-291.2" font-family="Courier,monospace" font-size="11.00">DebuggerFactory</text>
</g>
<!-- \\WebinoDebug\\Factory\\DebuggerFactory&#45;&gt;\\Zend\\ServiceManager\\FactoryInterface -->
<g id="edge5" class="edge"><title>\\WebinoDebug\\Factory\\DebuggerFactory&#45;&gt;\\Zend\\ServiceManager\\FactoryInterface</title>
<path fill="none" stroke="black" stroke-dasharray="1,5" d="M797.576,-287.183C787.502,-283.856 777.785,-279.016 770,-272 709.099,-217.118 770.004,-150.23 706,-99 693.88,-89.2989 679.972,-82.1385 665.252,-76.9315"/>
<polygon fill="none" stroke="black" points="666.064,-73.516 655.473,-73.7848 663.92,-80.1796 666.064,-73.516"/>
</g>
<!-- \\WebinoDebug\\Service\\EventProfiler -->
<g id="node7" class="node"><title>\\WebinoDebug\\Service\\EventProfiler</title>
<polygon fill="none" stroke="black" points="909,-992 805,-992 805,-956 909,-956 909,-992"/>
<text text-anchor="middle" x="857" y="-971.2" font-family="Courier,monospace" font-size="11.00">EventProfiler</text>
</g>
<!-- \\WebinoDebug\\Service\\NullDebugger -->
<g id="node8" class="node"><title>\\WebinoDebug\\Service\\NullDebugger</title>
<polygon fill="none" stroke="black" points="906,-938 808,-938 808,-902 906,-902 906,-938"/>
<text text-anchor="middle" x="857" y="-917.2" font-family="Courier,monospace" font-size="11.00">NullDebugger</text>
</g>
<!-- \\WebinoDebug\\Service\\DebuggerInterface -->
<g id="node10" class="node"><title>\\WebinoDebug\\Service\\DebuggerInterface</title>
<polygon fill="none" stroke="black" points="569.5,-911 438.5,-911 438.5,-875 569.5,-875 569.5,-911"/>
<text text-anchor="middle" x="504" y="-890.2" font-family="Courier,monospace" font-size="11.00">DebuggerInterface</text>
</g>
<!-- \\WebinoDebug\\Service\\NullDebugger&#45;&gt;\\WebinoDebug\\Service\\DebuggerInterface -->
<g id="edge6" class="edge"><title>\\WebinoDebug\\Service\\NullDebugger&#45;&gt;\\WebinoDebug\\Service\\DebuggerInterface</title>
<path fill="none" stroke="black" stroke-dasharray="1,5" d="M807.931,-916.302C749.176,-911.783 649.078,-904.083 580.124,-898.779"/>
<polygon fill="none" stroke="black" points="580,-895.259 569.761,-897.982 579.463,-902.238 580,-895.259"/>
</g>
<!-- \\WebinoDebug\\Service\\Debugger -->
<g id="node9" class="node"><title>\\WebinoDebug\\Service\\Debugger</title>
<polygon fill="none" stroke="black" points="892.5,-884 821.5,-884 821.5,-848 892.5,-848 892.5,-884"/>
<text text-anchor="middle" x="857" y="-863.2" font-family="Courier,monospace" font-size="11.00">Debugger</text>
</g>
<!-- \\WebinoDebug\\Service\\Debugger&#45;&gt;\\WebinoDebug\\Service\\DebuggerInterface -->
<g id="edge7" class="edge"><title>\\WebinoDebug\\Service\\Debugger&#45;&gt;\\WebinoDebug\\Service\\DebuggerInterface</title>
<path fill="none" stroke="black" stroke-dasharray="1,5" d="M821.384,-868.663C765.552,-872.958 654.352,-881.511 579.798,-887.246"/>
<polygon fill="none" stroke="black" points="579.233,-883.779 569.53,-888.036 579.77,-890.759 579.233,-883.779"/>
</g>
<!-- \\WebinoDebug\\Debugger\\Bar\\InfoPanel -->
<g id="node11" class="node"><title>\\WebinoDebug\\Debugger\\Bar\\InfoPanel</title>
<polygon fill="none" stroke="black" points="895.5,-776 818.5,-776 818.5,-740 895.5,-740 895.5,-776"/>
<text text-anchor="middle" x="857" y="-755.2" font-family="Courier,monospace" font-size="11.00">InfoPanel</text>
</g>
<!-- \\WebinoDebug\\Debugger\\Bar\\AbstractPanel -->
<g id="node14" class="node"><title>\\WebinoDebug\\Debugger\\Bar\\AbstractPanel</title>
<polygon fill="none" stroke="black" points="556,-668 452,-668 452,-632 556,-632 556,-668"/>
<text text-anchor="start" x="470" y="-653.2" font-family="Courier,monospace" font-size="11.00">«abstract»</text>
<text text-anchor="start" x="460" y="-641.2" font-family="Courier,monospace" font-size="11.00">AbstractPanel</text>
</g>
<!-- \\WebinoDebug\\Debugger\\Bar\\InfoPanel&#45;&gt;\\WebinoDebug\\Debugger\\Bar\\AbstractPanel -->
<g id="edge8" class="edge"><title>\\WebinoDebug\\Debugger\\Bar\\InfoPanel&#45;&gt;\\WebinoDebug\\Debugger\\Bar\\AbstractPanel</title>
<path fill="none" stroke="black" d="M818.283,-749.643C802.758,-745.33 784.949,-739.216 770,-731 737.385,-713.075 740.025,-692.08 706,-677 661.933,-657.469 607.517,-651.106 566.422,-649.412"/>
<polygon fill="none" stroke="black" points="566.386,-645.909 556.276,-649.077 566.155,-652.905 566.386,-645.909"/>
</g>
<!-- \\WebinoDebug\\Debugger\\Bar\\PanelInterface -->
<g id="node15" class="node"><title>\\WebinoDebug\\Debugger\\Bar\\PanelInterface</title>
<polygon fill="none" stroke="black" points="559.5,-722 448.5,-722 448.5,-686 559.5,-686 559.5,-722"/>
<text text-anchor="middle" x="504" y="-701.2" font-family="Courier,monospace" font-size="11.00">PanelInterface</text>
</g>
<!-- \\WebinoDebug\\Debugger\\Bar\\InfoPanel&#45;&gt;\\WebinoDebug\\Debugger\\Bar\\PanelInterface -->
<g id="edge9" class="edge"><title>\\WebinoDebug\\Debugger\\Bar\\InfoPanel&#45;&gt;\\WebinoDebug\\Debugger\\Bar\\PanelInterface</title>
<path fill="none" stroke="black" stroke-dasharray="1,5" d="M818.475,-750.767C788.181,-745.043 744.425,-737.036 706,-731 660.564,-723.863 609.162,-716.979 569.712,-711.949"/>
<polygon fill="none" stroke="black" points="570.055,-708.464 559.694,-710.678 569.174,-715.409 570.055,-708.464"/>
</g>
<!-- \\WebinoDebug\\Debugger\\Bar\\PanelInitInterface -->
<g id="node16" class="node"><title>\\WebinoDebug\\Debugger\\Bar\\PanelInitInterface</title>
<polygon fill="none" stroke="black" points="573,-776 435,-776 435,-740 573,-740 573,-776"/>
<text text-anchor="middle" x="504" y="-755.2" font-family="Courier,monospace" font-size="11.00">PanelInitInterface</text>
</g>
<!-- \\WebinoDebug\\Debugger\\Bar\\InfoPanel&#45;&gt;\\WebinoDebug\\Debugger\\Bar\\PanelInitInterface -->
<g id="edge10" class="edge"><title>\\WebinoDebug\\Debugger\\Bar\\InfoPanel&#45;&gt;\\WebinoDebug\\Debugger\\Bar\\PanelInitInterface</title>
<path fill="none" stroke="black" stroke-dasharray="1,5" d="M818.437,-758C762.613,-758 656.488,-758 583.303,-758"/>
<polygon fill="none" stroke="black" points="583.203,-754.5 573.203,-758 583.203,-761.5 583.203,-754.5"/>
</g>
<!-- \\WebinoDebug\\Debugger\\Bar\\ConfigPanel -->
<g id="node12" class="node"><title>\\WebinoDebug\\Debugger\\Bar\\ConfigPanel</title>
<polygon fill="none" stroke="black" points="902.5,-722 811.5,-722 811.5,-686 902.5,-686 902.5,-722"/>
<text text-anchor="middle" x="857" y="-701.2" font-family="Courier,monospace" font-size="11.00">ConfigPanel</text>
</g>
<!-- \\WebinoDebug\\Debugger\\Bar\\ConfigPanel&#45;&gt;\\WebinoDebug\\Debugger\\Bar\\AbstractPanel -->
<g id="edge11" class="edge"><title>\\WebinoDebug\\Debugger\\Bar\\ConfigPanel&#45;&gt;\\WebinoDebug\\Debugger\\Bar\\AbstractPanel</title>
<path fill="none" stroke="black" d="M811.456,-695.445C781.662,-689.855 741.55,-682.584 706,-677 659.284,-669.662 606.261,-662.592 566.408,-657.528"/>
<polygon fill="none" stroke="black" points="566.672,-654.034 556.312,-656.253 565.795,-660.979 566.672,-654.034"/>
</g>
<!-- \\WebinoDebug\\Debugger\\Bar\\ConfigPanel&#45;&gt;\\WebinoDebug\\Debugger\\Bar\\PanelInterface -->
<g id="edge12" class="edge"><title>\\WebinoDebug\\Debugger\\Bar\\ConfigPanel&#45;&gt;\\WebinoDebug\\Debugger\\Bar\\PanelInterface</title>
<path fill="none" stroke="black" stroke-dasharray="1,5" d="M811.189,-704C749.976,-704 639.828,-704 569.672,-704"/>
<polygon fill="none" stroke="black" points="569.622,-700.5 559.622,-704 569.622,-707.5 569.622,-700.5"/>
</g>
<!-- \\WebinoDebug\\Debugger\\Bar\\ConfigPanel&#45;&gt;\\WebinoDebug\\Debugger\\Bar\\PanelInitInterface -->
<g id="edge13" class="edge"><title>\\WebinoDebug\\Debugger\\Bar\\ConfigPanel&#45;&gt;\\WebinoDebug\\Debugger\\Bar\\PanelInitInterface</title>
<path fill="none" stroke="black" stroke-dasharray="1,5" d="M811.456,-712.555C781.662,-718.145 741.55,-725.416 706,-731 665.622,-737.343 620.533,-743.485 583.308,-748.304"/>
<polygon fill="none" stroke="black" points="582.499,-744.88 573.027,-749.628 583.393,-751.822 582.499,-744.88"/>
</g>
<!-- \\WebinoDebug\\Debugger\\Bar\\EventPanel -->
<g id="node13" class="node"><title>\\WebinoDebug\\Debugger\\Bar\\EventPanel</title>
<polygon fill="none" stroke="black" points="899,-668 815,-668 815,-632 899,-632 899,-668"/>
<text text-anchor="middle" x="857" y="-647.2" font-family="Courier,monospace" font-size="11.00">EventPanel</text>
</g>
<!-- \\WebinoDebug\\Debugger\\Bar\\EventPanel&#45;&gt;\\WebinoDebug\\Debugger\\Bar\\AbstractPanel -->
<g id="edge14" class="edge"><title>\\WebinoDebug\\Debugger\\Bar\\EventPanel&#45;&gt;\\WebinoDebug\\Debugger\\Bar\\AbstractPanel</title>
<path fill="none" stroke="black" d="M814.704,-650C753.3,-650 637.53,-650 566.244,-650"/>
<polygon fill="none" stroke="black" points="566.061,-646.5 556.061,-650 566.061,-653.5 566.061,-646.5"/>
</g>
<!-- \\WebinoDebug\\Debugger\\Bar\\EventPanel&#45;&gt;\\WebinoDebug\\Debugger\\Bar\\PanelInterface -->
<g id="edge15" class="edge"><title>\\WebinoDebug\\Debugger\\Bar\\EventPanel&#45;&gt;\\WebinoDebug\\Debugger\\Bar\\PanelInterface</title>
<path fill="none" stroke="black" stroke-dasharray="1,5" d="M814.699,-657.945C784.618,-663.608 742.857,-671.21 706,-677 660.564,-684.137 609.162,-691.021 569.712,-696.051"/>
<polygon fill="none" stroke="black" points="569.174,-692.591 559.694,-697.322 570.055,-699.536 569.174,-692.591"/>
</g>
<!-- \\Tracy\\IBarPanel -->
<g id="node25" class="node"><title>\\Tracy\\IBarPanel</title>
<ellipse fill="none" stroke="black" cx="115" cy="-704" rx="68.7879" ry="18"/>
<text text-anchor="middle" x="115" y="-700.3" font-family="Times,serif" font-size="14.00" fill="gray">Tracy\IBarPanel</text>
</g>
<!-- \\WebinoDebug\\Debugger\\Bar\\PanelInterface&#45;&gt;\\Tracy\\IBarPanel -->
<g id="edge19" class="edge"><title>\\WebinoDebug\\Debugger\\Bar\\PanelInterface&#45;&gt;\\Tracy\\IBarPanel</title>
<path fill="none" stroke="black" d="M448.373,-704C382.108,-704 269.919,-704 194.428,-704"/>
<polygon fill="none" stroke="black" points="194.028,-700.5 184.028,-704 194.028,-707.5 194.028,-700.5"/>
</g>
<!-- \\WebinoDebug\\Exception\\LogicException -->
<g id="node17" class="node"><title>\\WebinoDebug\\Exception\\LogicException</title>
<polygon fill="none" stroke="black" points="912.5,-580 801.5,-580 801.5,-544 912.5,-544 912.5,-580"/>
<text text-anchor="middle" x="857" y="-559.2" font-family="Courier,monospace" font-size="11.00">LogicException</text>
</g>
<!-- \\WebinoDebug\\Exception\\ExceptionInterface -->
<g id="node18" class="node"><title>\\WebinoDebug\\Exception\\ExceptionInterface</title>
<polygon fill="none" stroke="black" points="573,-580 435,-580 435,-544 573,-544 573,-580"/>
<text text-anchor="middle" x="504" y="-559.2" font-family="Courier,monospace" font-size="11.00">ExceptionInterface</text>
</g>
<!-- \\WebinoDebug\\Exception\\LogicException&#45;&gt;\\WebinoDebug\\Exception\\ExceptionInterface -->
<g id="edge18" class="edge"><title>\\WebinoDebug\\Exception\\LogicException&#45;&gt;\\WebinoDebug\\Exception\\ExceptionInterface</title>
<path fill="none" stroke="black" stroke-dasharray="1,5" d="M801.156,-562C742.773,-562 649.862,-562 583.683,-562"/>
<polygon fill="none" stroke="black" points="583.301,-558.5 573.301,-562 583.301,-565.5 583.301,-558.5"/>
</g>
<!-- \\LogicException -->
<g id="node24" class="node"><title>\\LogicException</title>
<ellipse fill="none" stroke="black" cx="504" cy="-180" rx="66.8882" ry="18"/>
<text text-anchor="middle" x="504" y="-176.3" font-family="Times,serif" font-size="14.00" fill="gray">LogicException</text>
</g>
<!-- \\WebinoDebug\\Exception\\LogicException&#45;&gt;\\LogicException -->
<g id="edge17" class="edge"><title>\\WebinoDebug\\Exception\\LogicException&#45;&gt;\\LogicException</title>
<path fill="none" stroke="black" d="M801.284,-548.361C790.323,-544.17 779.324,-538.806 770,-532 644.533,-440.413 551.367,-272.63 518.208,-207.17"/>
<polygon fill="none" stroke="black" points="521.185,-205.298 513.579,-197.922 514.925,-208.431 521.185,-205.298"/>
</g>
<!-- \\WebinoDebug\\Module -->
<g id="node19" class="node"><title>\\WebinoDebug\\Module</title>
<polygon fill="none" stroke="black" points="885.5,-258 828.5,-258 828.5,-222 885.5,-222 885.5,-258"/>
<text text-anchor="middle" x="857" y="-237.2" font-family="Courier,monospace" font-size="11.00">Module</text>
</g>
<!-- \\Zend\\ModuleManager\\Feature\\InitProviderInterface -->
<g id="node23" class="node"><title>\\Zend\\ModuleManager\\Feature\\InitProviderInterface</title>
<ellipse fill="none" stroke="black" cx="504" cy="-18" rx="198.465" ry="18"/>
<text text-anchor="middle" x="504" y="-14.3" font-family="Times,serif" font-size="14.00" fill="gray">\Zend\ModuleManager\Feature\InitProviderInterface</text>
</g>
<!-- \\WebinoDebug\\Module&#45;&gt;\\Zend\\ModuleManager\\Feature\\InitProviderInterface -->
<g id="edge16" class="edge"><title>\\WebinoDebug\\Module&#45;&gt;\\Zend\\ModuleManager\\Feature\\InitProviderInterface</title>
<path fill="none" stroke="black" stroke-dasharray="1,5" d="M848.085,-221.931C829.655,-182.254 779.763,-87.6576 706,-45 696.724,-39.6356 686.813,-35.1651 676.549,-31.4518"/>
<polygon fill="none" stroke="black" points="677.625,-28.1212 667.031,-28.2505 675.393,-34.756 677.625,-28.1212"/>
</g>
</g>
</svg>
