<?xml version="1.0" encoding="UTF-8" standalone="no"?>
<!DOCTYPE svg PUBLIC "-//W3C//DTD SVG 1.1//EN"
 "http://www.w3.org/Graphics/SVG/1.1/DTD/svg11.dtd">
<!-- Generated by graphviz version 2.26.3 (20100126.1600)
 -->
<!-- Title: G Pages: 1 -->
<svg width="1218pt" height="1310pt"
 viewBox="0.00 0.00 1218.00 1310.00" xmlns="http://www.w3.org/2000/svg" xmlns:xlink="http://www.w3.org/1999/xlink">
<g id="graph1" class="graph" transform="scale(1 1) rotate(0) translate(4 1306)">
<title>G</title>
<polygon fill="white" stroke="white" points="-4,5 -4,-1306 1215,-1306 1215,5 -4,5"/>
<g id="graph2" class="cluster"><title>cluster_Global</title>
<polyline fill="none" stroke="gray" points="573,-206 1190,-206 "/>
<path fill="none" stroke="gray" d="M1190,-206C1196,-206 1202,-212 1202,-218"/>
<polyline fill="none" stroke="gray" points="1202,-218 1202,-1282 "/>
<path fill="none" stroke="gray" d="M1202,-1282C1202,-1288 1196,-1294 1190,-1294"/>
<polyline fill="none" stroke="gray" points="1190,-1294 573,-1294 "/>
<path fill="none" stroke="gray" d="M573,-1294C567,-1294 561,-1288 561,-1282"/>
<polyline fill="none" stroke="gray" points="561,-1282 561,-218 "/>
<path fill="none" stroke="gray" d="M561,-218C561,-212 567,-206 573,-206"/>
<text text-anchor="middle" x="881.5" y="-1280.1" font-family="Times Roman,serif" font-size="11.00" fill="gray">Global</text>
</g>
<g id="graph3" class="cluster"><title>cluster_\WebinoDebug</title>
<polyline fill="none" stroke="gray" points="581,-214 1182,-214 "/>
<path fill="none" stroke="gray" d="M1182,-214C1188,-214 1194,-220 1194,-226"/>
<polyline fill="none" stroke="gray" points="1194,-226 1194,-1252 "/>
<path fill="none" stroke="gray" d="M1194,-1252C1194,-1258 1188,-1264 1182,-1264"/>
<polyline fill="none" stroke="gray" points="1182,-1264 581,-1264 "/>
<path fill="none" stroke="gray" d="M581,-1264C575,-1264 569,-1258 569,-1252"/>
<polyline fill="none" stroke="gray" points="569,-1252 569,-226 "/>
<path fill="none" stroke="gray" d="M569,-226C569,-220 575,-214 581,-214"/>
<text text-anchor="middle" x="881.5" y="-1250.1" font-family="Times Roman,serif" font-size="11.00" fill="gray">WebinoDebug</text>
</g>
<g id="graph4" class="cluster"><title>cluster_\WebinoDebug\Tracy</title>
<polyline fill="none" stroke="gray" points="1049,-1122 1149,-1122 "/>
<path fill="none" stroke="gray" d="M1149,-1122C1155,-1122 1161,-1128 1161,-1134"/>
<polyline fill="none" stroke="gray" points="1161,-1134 1161,-1222 "/>
<path fill="none" stroke="gray" d="M1161,-1222C1161,-1228 1155,-1234 1149,-1234"/>
<polyline fill="none" stroke="gray" points="1149,-1234 1049,-1234 "/>
<path fill="none" stroke="gray" d="M1049,-1234C1043,-1234 1037,-1228 1037,-1222"/>
<polyline fill="none" stroke="gray" points="1037,-1222 1037,-1134 "/>
<path fill="none" stroke="gray" d="M1037,-1134C1037,-1128 1043,-1122 1049,-1122"/>
<text text-anchor="middle" x="1099" y="-1220.1" font-family="Times Roman,serif" font-size="11.00" fill="gray">Tracy</text>
</g>
<g id="graph5" class="cluster"><title>cluster_\WebinoDebug\Tracy\Workaround</title>
<polyline fill="none" stroke="gray" points="1057,-1130 1141,-1130 "/>
<path fill="none" stroke="gray" d="M1141,-1130C1147,-1130 1153,-1136 1153,-1142"/>
<polyline fill="none" stroke="gray" points="1153,-1142 1153,-1192 "/>
<path fill="none" stroke="gray" d="M1153,-1192C1153,-1198 1147,-1204 1141,-1204"/>
<polyline fill="none" stroke="gray" points="1141,-1204 1057,-1204 "/>
<path fill="none" stroke="gray" d="M1057,-1204C1051,-1204 1045,-1198 1045,-1192"/>
<polyline fill="none" stroke="gray" points="1045,-1192 1045,-1142 "/>
<path fill="none" stroke="gray" d="M1045,-1142C1045,-1136 1051,-1130 1057,-1130"/>
<text text-anchor="middle" x="1099" y="-1190.1" font-family="Times Roman,serif" font-size="11.00" fill="gray">Workaround</text>
</g>
<g id="graph6" class="cluster"><title>cluster_\WebinoDebug\Service</title>
<polyline fill="none" stroke="gray" points="600,-932 1147,-932 "/>
<path fill="none" stroke="gray" d="M1147,-932C1153,-932 1159,-938 1159,-944"/>
<polyline fill="none" stroke="gray" points="1159,-944 1159,-1102 "/>
<path fill="none" stroke="gray" d="M1159,-1102C1159,-1108 1153,-1114 1147,-1114"/>
<polyline fill="none" stroke="gray" points="1147,-1114 600,-1114 "/>
<path fill="none" stroke="gray" d="M600,-1114C594,-1114 588,-1108 588,-1102"/>
<polyline fill="none" stroke="gray" points="588,-1102 588,-944 "/>
<path fill="none" stroke="gray" d="M588,-944C588,-938 594,-932 600,-932"/>
<text text-anchor="middle" x="873.5" y="-1100.1" font-family="Times Roman,serif" font-size="11.00" fill="gray">Service</text>
</g>
<g id="graph7" class="cluster"><title>cluster_\WebinoDebug\Options</title>
<polyline fill="none" stroke="gray" points="607,-850 1147,-850 "/>
<path fill="none" stroke="gray" d="M1147,-850C1153,-850 1159,-856 1159,-862"/>
<polyline fill="none" stroke="gray" points="1159,-862 1159,-912 "/>
<path fill="none" stroke="gray" d="M1159,-912C1159,-918 1153,-924 1147,-924"/>
<polyline fill="none" stroke="gray" points="1147,-924 607,-924 "/>
<path fill="none" stroke="gray" d="M607,-924C601,-924 595,-918 595,-912"/>
<polyline fill="none" stroke="gray" points="595,-912 595,-862 "/>
<path fill="none" stroke="gray" d="M595,-862C595,-856 601,-850 607,-850"/>
<text text-anchor="middle" x="877" y="-910.1" font-family="Times Roman,serif" font-size="11.00" fill="gray">Options</text>
</g>
<g id="graph8" class="cluster"><title>cluster_\WebinoDebug\Listener</title>
<polyline fill="none" stroke="gray" points="1024,-458 1174,-458 "/>
<path fill="none" stroke="gray" d="M1174,-458C1180,-458 1186,-464 1186,-470"/>
<polyline fill="none" stroke="gray" points="1186,-470 1186,-520 "/>
<path fill="none" stroke="gray" d="M1186,-520C1186,-526 1180,-532 1174,-532"/>
<polyline fill="none" stroke="gray" points="1174,-532 1024,-532 "/>
<path fill="none" stroke="gray" d="M1024,-532C1018,-532 1012,-526 1012,-520"/>
<polyline fill="none" stroke="gray" points="1012,-520 1012,-470 "/>
<path fill="none" stroke="gray" d="M1012,-470C1012,-464 1018,-458 1024,-458"/>
<text text-anchor="middle" x="1099" y="-518.1" font-family="Times Roman,serif" font-size="11.00" fill="gray">Listener</text>
</g>
<g id="graph9" class="cluster"><title>cluster_\WebinoDebug\Factory</title>
<polyline fill="none" stroke="gray" points="1027,-268 1171,-268 "/>
<path fill="none" stroke="gray" d="M1171,-268C1177,-268 1183,-274 1183,-280"/>
<polyline fill="none" stroke="gray" points="1183,-280 1183,-438 "/>
<path fill="none" stroke="gray" d="M1183,-438C1183,-444 1177,-450 1171,-450"/>
<polyline fill="none" stroke="gray" points="1171,-450 1027,-450 "/>
<path fill="none" stroke="gray" d="M1027,-450C1021,-450 1015,-444 1015,-438"/>
<polyline fill="none" stroke="gray" points="1015,-438 1015,-280 "/>
<path fill="none" stroke="gray" d="M1015,-280C1015,-274 1021,-268 1027,-268"/>
<text text-anchor="middle" x="1099" y="-436.1" font-family="Times Roman,serif" font-size="11.00" fill="gray">Factory</text>
</g>
<g id="graph10" class="cluster"><title>cluster_\WebinoDebug\Exception</title>
<polyline fill="none" stroke="gray" points="597,-768 1151,-768 "/>
<path fill="none" stroke="gray" d="M1151,-768C1157,-768 1163,-774 1163,-780"/>
<polyline fill="none" stroke="gray" points="1163,-780 1163,-830 "/>
<path fill="none" stroke="gray" d="M1163,-830C1163,-836 1157,-842 1151,-842"/>
<polyline fill="none" stroke="gray" points="1151,-842 597,-842 "/>
<path fill="none" stroke="gray" d="M597,-842C591,-842 585,-836 585,-830"/>
<polyline fill="none" stroke="gray" points="585,-830 585,-780 "/>
<path fill="none" stroke="gray" d="M585,-780C585,-774 591,-768 597,-768"/>
<text text-anchor="middle" x="874" y="-828.1" font-family="Times Roman,serif" font-size="11.00" fill="gray">Exception</text>
</g>
<g id="graph11" class="cluster"><title>cluster_\WebinoDebug\Debugger</title>
<polyline fill="none" stroke="gray" points="589,-540 1149,-540 "/>
<path fill="none" stroke="gray" d="M1149,-540C1155,-540 1161,-546 1161,-552"/>
<polyline fill="none" stroke="gray" points="1161,-552 1161,-748 "/>
<path fill="none" stroke="gray" d="M1161,-748C1161,-754 1155,-760 1149,-760"/>
<polyline fill="none" stroke="gray" points="1149,-760 589,-760 "/>
<path fill="none" stroke="gray" d="M589,-760C583,-760 577,-754 577,-748"/>
<polyline fill="none" stroke="gray" points="577,-748 577,-552 "/>
<path fill="none" stroke="gray" d="M577,-552C577,-546 583,-540 589,-540"/>
<text text-anchor="middle" x="869" y="-746.1" font-family="Times Roman,serif" font-size="11.00" fill="gray">Debugger</text>
</g>
<g id="graph12" class="cluster"><title>cluster_\WebinoDebug\Debugger\Bar</title>
<polyline fill="none" stroke="gray" points="597,-548 1141,-548 "/>
<path fill="none" stroke="gray" d="M1141,-548C1147,-548 1153,-554 1153,-560"/>
<polyline fill="none" stroke="gray" points="1153,-560 1153,-718 "/>
<path fill="none" stroke="gray" d="M1153,-718C1153,-724 1147,-730 1141,-730"/>
<polyline fill="none" stroke="gray" points="1141,-730 597,-730 "/>
<path fill="none" stroke="gray" d="M597,-730C591,-730 585,-724 585,-718"/>
<polyline fill="none" stroke="gray" points="585,-718 585,-560 "/>
<path fill="none" stroke="gray" d="M585,-560C585,-554 591,-548 597,-548"/>
<text text-anchor="middle" x="869" y="-716.1" font-family="Times Roman,serif" font-size="11.00" fill="gray">Bar</text>
</g>
<!-- \\WebinoDebug\\Tracy\\Workaround\\DisabledBar -->
<g id="node5" class="node"><title>\\WebinoDebug\\Tracy\\Workaround\\DisabledBar</title>
<polygon fill="none" stroke="black" points="1144,-1174 1054,-1174 1054,-1138 1144,-1138 1144,-1174"/>
<text text-anchor="middle" x="1099" y="-1153.1" font-family="Courier,monospace" font-size="11.00">DisabledBar</text>
</g>
<!-- \\WebinoDebug\\Service\\NullDebugger -->
<g id="node7" class="node"><title>\\WebinoDebug\\Service\\NullDebugger</title>
<polygon fill="none" stroke="black" points="1148,-1084 1050,-1084 1050,-1048 1148,-1048 1148,-1084"/>
<text text-anchor="middle" x="1099" y="-1063.1" font-family="Courier,monospace" font-size="11.00">NullDebugger</text>
</g>
<!-- \\WebinoDebug\\Service\\DebuggerInterface -->
<g id="node10" class="node"><title>\\WebinoDebug\\Service\\DebuggerInterface</title>
<polygon fill="none" stroke="black" points="727,-1030 597,-1030 597,-994 727,-994 727,-1030"/>
<text text-anchor="middle" x="662" y="-1009.1" font-family="Courier,monospace" font-size="11.00">DebuggerInterface</text>
</g>
<!-- \\WebinoDebug\\Service\\NullDebugger&#45;&gt;\\WebinoDebug\\Service\\DebuggerInterface -->
<g id="edge13" class="edge"><title>\\WebinoDebug\\Service\\NullDebugger&#45;&gt;\\WebinoDebug\\Service\\DebuggerInterface</title>
<path fill="none" stroke="black" stroke-dasharray="1,5" d="M1049.72,-1059.91C973.741,-1050.52 827.425,-1032.44 737.873,-1021.38"/>
<polygon fill="none" stroke="black" points="738.133,-1017.88 727.779,-1020.13 737.274,-1024.83 738.133,-1017.88"/>
</g>
<!-- \\WebinoDebug\\Service\\EventProfiler -->
<g id="node8" class="node"><title>\\WebinoDebug\\Service\\EventProfiler</title>
<polygon fill="none" stroke="black" points="1151,-1030 1047,-1030 1047,-994 1151,-994 1151,-1030"/>
<text text-anchor="middle" x="1099" y="-1009.1" font-family="Courier,monospace" font-size="11.00">EventProfiler</text>
</g>
<!-- \\WebinoDebug\\Service\\Debugger -->
<g id="node9" class="node"><title>\\WebinoDebug\\Service\\Debugger</title>
<polygon fill="none" stroke="black" points="1134,-976 1064,-976 1064,-940 1134,-940 1134,-976"/>
<text text-anchor="middle" x="1099" y="-955.1" font-family="Courier,monospace" font-size="11.00">Debugger</text>
</g>
<!-- \\WebinoDebug\\Service\\Debugger&#45;&gt;\\WebinoDebug\\Service\\DebuggerInterface -->
<g id="edge15" class="edge"><title>\\WebinoDebug\\Service\\Debugger&#45;&gt;\\WebinoDebug\\Service\\DebuggerInterface</title>
<path fill="none" stroke="black" stroke-dasharray="1,5" d="M1063.24,-962.419C992.434,-971.168 833.034,-990.865 737.833,-1002.63"/>
<polygon fill="none" stroke="black" points="737.185,-999.183 727.689,-1003.88 738.043,-1006.13 737.185,-999.183"/>
</g>
<!-- \\WebinoDebug\\Options\\ModuleOptions -->
<g id="node12" class="node"><title>\\WebinoDebug\\Options\\ModuleOptions</title>
<polygon fill="none" stroke="black" points="1151,-894 1047,-894 1047,-858 1151,-858 1151,-894"/>
<text text-anchor="middle" x="1099" y="-873.1" font-family="Courier,monospace" font-size="11.00">ModuleOptions</text>
</g>
<!-- \\WebinoDebug\\Options\\DebuggerOptions -->
<g id="node13" class="node"><title>\\WebinoDebug\\Options\\DebuggerOptions</title>
<polygon fill="none" stroke="black" points="721,-894 603,-894 603,-858 721,-858 721,-894"/>
<text text-anchor="middle" x="662" y="-873.1" font-family="Courier,monospace" font-size="11.00">DebuggerOptions</text>
</g>
<!-- \\WebinoDebug\\Options\\ModuleOptions&#45;&gt;\\WebinoDebug\\Options\\DebuggerOptions -->
<g id="edge17" class="edge"><title>\\WebinoDebug\\Options\\ModuleOptions&#45;&gt;\\WebinoDebug\\Options\\DebuggerOptions</title>
<path fill="none" stroke="black" d="M1046.72,-876C968.052,-876 819.126,-876 731.43,-876"/>
<polygon fill="none" stroke="black" points="731.31,-872.5 721.31,-876 731.31,-879.5 731.31,-872.5"/>
</g>
<!-- \\Zend\\Stdlib\\AbstractOptions -->
<g id="node36" class="node"><title>\\Zend\\Stdlib\\AbstractOptions</title>
<ellipse fill="none" stroke="black" cx="152" cy="-876" rx="152.028" ry="18.3848"/>
<text text-anchor="middle" x="152" y="-872.4" font-family="Times Roman,serif" font-size="14.00" fill="gray">\Zend\Stdlib\AbstractOptions</text>
</g>
<!-- \\WebinoDebug\\Options\\DebuggerOptions&#45;&gt;\\Zend\\Stdlib\\AbstractOptions -->
<g id="edge19" class="edge"><title>\\WebinoDebug\\Options\\DebuggerOptions&#45;&gt;\\Zend\\Stdlib\\AbstractOptions</title>
<path fill="none" stroke="black" d="M602.998,-876C532.843,-876 412.848,-876 314.263,-876"/>
<polygon fill="none" stroke="black" points="314.184,-872.5 304.184,-876 314.184,-879.5 314.184,-872.5"/>
</g>
<!-- \\WebinoDebug\\Listener\\EventProfilerListener -->
<g id="node15" class="node"><title>\\WebinoDebug\\Listener\\EventProfilerListener</title>
<polygon fill="none" stroke="black" points="1178,-502 1020,-502 1020,-466 1178,-466 1178,-502"/>
<text text-anchor="middle" x="1099" y="-481.1" font-family="Courier,monospace" font-size="11.00">EventProfilerListener</text>
</g>
<!-- \\Zend\\EventManager\\SharedListenerAggregateInterface -->
<g id="node40" class="node"><title>\\Zend\\EventManager\\SharedListenerAggregateInterface</title>
<ellipse fill="none" stroke="black" cx="662" cy="-126" rx="285.171" ry="18.3848"/>
<text text-anchor="middle" x="662" y="-122.4" font-family="Times Roman,serif" font-size="14.00" fill="gray">\Zend\EventManager\SharedListenerAggregateInterface</text>
</g>
<!-- \\WebinoDebug\\Listener\\EventProfilerListener&#45;&gt;\\Zend\\EventManager\\SharedListenerAggregateInterface -->
<g id="edge23" class="edge"><title>\\WebinoDebug\\Listener\\EventProfilerListener&#45;&gt;\\Zend\\EventManager\\SharedListenerAggregateInterface</title>
<path fill="none" stroke="black" stroke-dasharray="1,5" d="M1026.34,-465.938C1021.02,-462.609 1016.13,-458.668 1012,-454 921.394,-351.549 1050.12,-243.973 948,-153 898.789,-109.163 824.178,-103.388 763.501,-108.061"/>
<polygon fill="none" stroke="black" points="763.162,-104.577 753.504,-108.934 763.771,-111.551 763.162,-104.577"/>
</g>
<!-- \\WebinoDebug\\Factory\\ModuleOptionsFactory -->
<g id="node17" class="node"><title>\\WebinoDebug\\Factory\\ModuleOptionsFactory</title>
<polygon fill="none" stroke="black" points="1175,-420 1023,-420 1023,-384 1175,-384 1175,-420"/>
<text text-anchor="middle" x="1099" y="-399.1" font-family="Courier,monospace" font-size="11.00">ModuleOptionsFactory</text>
</g>
<!-- \\Zend\\ServiceManager\\FactoryInterface -->
<g id="node42" class="node"><title>\\Zend\\ServiceManager\\FactoryInterface</title>
<ellipse fill="none" stroke="black" cx="662" cy="-72" rx="202.94" ry="18.3848"/>
<text text-anchor="middle" x="662" y="-68.4" font-family="Times Roman,serif" font-size="14.00" fill="gray">\Zend\ServiceManager\FactoryInterface</text>
</g>
<!-- \\WebinoDebug\\Factory\\ModuleOptionsFactory&#45;&gt;\\Zend\\ServiceManager\\FactoryInterface -->
<g id="edge25" class="edge"><title>\\WebinoDebug\\Factory\\ModuleOptionsFactory&#45;&gt;\\Zend\\ServiceManager\\FactoryInterface</title>
<path fill="none" stroke="black" stroke-dasharray="1,5" d="M1022.86,-384.151C1018.9,-381.507 1015.23,-378.475 1012,-375 926.272,-282.767 1042.79,-181.892 948,-99 897.144,-54.5277 820.032,-49.5597 758.688,-54.7411"/>
<polygon fill="none" stroke="black" points="758.223,-51.2694 748.597,-55.6958 758.882,-58.2383 758.223,-51.2694"/>
</g>
<!-- \\WebinoDebug\\Factory\\EventProfilerFactory -->
<g id="node18" class="node"><title>\\WebinoDebug\\Factory\\EventProfilerFactory</title>
<polygon fill="none" stroke="black" points="1175,-366 1023,-366 1023,-330 1175,-330 1175,-366"/>
<text text-anchor="middle" x="1099" y="-345.1" font-family="Courier,monospace" font-size="11.00">EventProfilerFactory</text>
</g>
<!-- \\WebinoDebug\\Factory\\DebuggerFactory -->
<g id="node19" class="node"><title>\\WebinoDebug\\Factory\\DebuggerFactory</title>
<polygon fill="none" stroke="black" points="1158,-312 1040,-312 1040,-276 1158,-276 1158,-312"/>
<text text-anchor="middle" x="1099" y="-291.1" font-family="Courier,monospace" font-size="11.00">DebuggerFactory</text>
</g>
<!-- \\WebinoDebug\\Factory\\DebuggerFactory&#45;&gt;\\Zend\\ServiceManager\\FactoryInterface -->
<g id="edge27" class="edge"><title>\\WebinoDebug\\Factory\\DebuggerFactory&#45;&gt;\\Zend\\ServiceManager\\FactoryInterface</title>
<path fill="none" stroke="black" stroke-dasharray="1,5" d="M1039.9,-287.289C1029.71,-283.953 1019.88,-279.081 1012,-272 951.023,-217.202 1013,-148.959 948,-99 899.599,-61.7991 832.1,-53.9994 774.831,-55.9902"/>
<polygon fill="none" stroke="black" points="774.464,-52.5031 764.632,-56.4505 774.78,-59.496 774.464,-52.5031"/>
</g>
<!-- \\WebinoDebug\\Exception\\LogicException -->
<g id="node21" class="node"><title>\\WebinoDebug\\Exception\\LogicException</title>
<polygon fill="none" stroke="black" points="1154,-812 1044,-812 1044,-776 1154,-776 1154,-812"/>
<text text-anchor="middle" x="1099" y="-791.1" font-family="Courier,monospace" font-size="11.00">LogicException</text>
</g>
<!-- \\WebinoDebug\\Exception\\ExceptionInterface -->
<g id="node22" class="node"><title>\\WebinoDebug\\Exception\\ExceptionInterface</title>
<polygon fill="none" stroke="black" points="731,-812 593,-812 593,-776 731,-776 731,-812"/>
<text text-anchor="middle" x="662" y="-791.1" font-family="Courier,monospace" font-size="11.00">ExceptionInterface</text>
</g>
<!-- \\WebinoDebug\\Exception\\LogicException&#45;&gt;\\WebinoDebug\\Exception\\ExceptionInterface -->
<g id="edge31" class="edge"><title>\\WebinoDebug\\Exception\\LogicException&#45;&gt;\\WebinoDebug\\Exception\\ExceptionInterface</title>
<path fill="none" stroke="black" stroke-dasharray="1,5" d="M1043.21,-794C966.628,-794 828.527,-794 741.247,-794"/>
<polygon fill="none" stroke="black" points="741.125,-790.5 731.125,-794 741.125,-797.5 741.125,-790.5"/>
</g>
<!-- \\LogicException -->
<g id="node45" class="node"><title>\\LogicException</title>
<ellipse fill="none" stroke="black" cx="662" cy="-180" rx="87.1802" ry="18.3848"/>
<text text-anchor="middle" x="662" y="-176.4" font-family="Times Roman,serif" font-size="14.00" fill="gray">\LogicException</text>
</g>
<!-- \\WebinoDebug\\Exception\\LogicException&#45;&gt;\\LogicException -->
<g id="edge29" class="edge"><title>\\WebinoDebug\\Exception\\LogicException&#45;&gt;\\LogicException</title>
<path fill="none" stroke="black" d="M1062.21,-775.821C1044.87,-765.625 1025.14,-751.435 1012,-734 958.36,-662.847 990.363,-622.392 948,-544 871.915,-403.204 741.146,-261.201 686.804,-205.061"/>
<polygon fill="none" stroke="black" points="689.14,-202.443 679.657,-197.719 684.124,-207.326 689.14,-202.443"/>
</g>
<!-- \\WebinoDebug\\Debugger\\Bar\\InfoPanel -->
<g id="node25" class="node"><title>\\WebinoDebug\\Debugger\\Bar\\InfoPanel</title>
<polygon fill="none" stroke="black" points="1137,-700 1061,-700 1061,-664 1137,-664 1137,-700"/>
<text text-anchor="middle" x="1099" y="-679.1" font-family="Courier,monospace" font-size="11.00">InfoPanel</text>
</g>
<!-- \\WebinoDebug\\Debugger\\Bar\\AbstractPanel -->
<g id="node28" class="node"><title>\\WebinoDebug\\Debugger\\Bar\\AbstractPanel</title>
<polygon fill="none" stroke="black" points="714,-592 610,-592 610,-556 714,-556 714,-592"/>
<text text-anchor="start" x="628" y="-579.433" font-family="Courier,monospace" font-size="11.00">«abstract»</text>
<text text-anchor="start" x="618" y="-566.233" font-family="Courier,monospace" font-size="11.00">AbstractPanel</text>
</g>
<!-- \\WebinoDebug\\Debugger\\Bar\\InfoPanel&#45;&gt;\\WebinoDebug\\Debugger\\Bar\\AbstractPanel -->
<g id="edge33" class="edge"><title>\\WebinoDebug\\Debugger\\Bar\\InfoPanel&#45;&gt;\\WebinoDebug\\Debugger\\Bar\\AbstractPanel</title>
<path fill="none" stroke="black" d="M1060.41,-673.586C1044.81,-669.289 1026.98,-663.202 1012,-655 979.355,-637.128 982.315,-615.407 948,-601 875.731,-570.659 784.408,-567.395 724.662,-569.398"/>
<polygon fill="none" stroke="black" points="724.474,-565.902 714.62,-569.794 724.75,-572.897 724.474,-565.902"/>
</g>
<!-- \\WebinoDebug\\Debugger\\Bar\\PanelInterface -->
<g id="node29" class="node"><title>\\WebinoDebug\\Debugger\\Bar\\PanelInterface</title>
<polygon fill="none" stroke="black" points="717,-646 607,-646 607,-610 717,-610 717,-646"/>
<text text-anchor="middle" x="662" y="-625.1" font-family="Courier,monospace" font-size="11.00">PanelInterface</text>
</g>
<!-- \\WebinoDebug\\Debugger\\Bar\\InfoPanel&#45;&gt;\\WebinoDebug\\Debugger\\Bar\\PanelInterface -->
<g id="edge35" class="edge"><title>\\WebinoDebug\\Debugger\\Bar\\InfoPanel&#45;&gt;\\WebinoDebug\\Debugger\\Bar\\PanelInterface</title>
<path fill="none" stroke="black" stroke-dasharray="1,5" d="M1060.35,-674.178C1029.92,-668.242 986.393,-660.236 948,-655 872.713,-644.733 785.742,-637.124 727.659,-632.645"/>
<polygon fill="none" stroke="black" points="727.755,-629.142 717.518,-631.872 727.224,-636.122 727.755,-629.142"/>
</g>
<!-- \\WebinoDebug\\Debugger\\Bar\\PanelInitInterface -->
<g id="node30" class="node"><title>\\WebinoDebug\\Debugger\\Bar\\PanelInitInterface</title>
<polygon fill="none" stroke="black" points="731,-700 593,-700 593,-664 731,-664 731,-700"/>
<text text-anchor="middle" x="662" y="-679.1" font-family="Courier,monospace" font-size="11.00">PanelInitInterface</text>
</g>
<!-- \\WebinoDebug\\Debugger\\Bar\\InfoPanel&#45;&gt;\\WebinoDebug\\Debugger\\Bar\\PanelInitInterface -->
<g id="edge37" class="edge"><title>\\WebinoDebug\\Debugger\\Bar\\InfoPanel&#45;&gt;\\WebinoDebug\\Debugger\\Bar\\PanelInitInterface</title>
<path fill="none" stroke="black" stroke-dasharray="1,5" d="M1060.22,-682C988.873,-682 835.501,-682 741.292,-682"/>
<polygon fill="none" stroke="black" points="741.236,-678.5 731.236,-682 741.236,-685.5 741.236,-678.5"/>
</g>
<!-- \\WebinoDebug\\Debugger\\Bar\\EventPanel -->
<g id="node26" class="node"><title>\\WebinoDebug\\Debugger\\Bar\\EventPanel</title>
<polygon fill="none" stroke="black" points="1141,-592 1057,-592 1057,-556 1141,-556 1141,-592"/>
<text text-anchor="middle" x="1099" y="-571.1" font-family="Courier,monospace" font-size="11.00">EventPanel</text>
</g>
<!-- \\WebinoDebug\\Debugger\\Bar\\EventPanel&#45;&gt;\\WebinoDebug\\Debugger\\Bar\\AbstractPanel -->
<g id="edge39" class="edge"><title>\\WebinoDebug\\Debugger\\Bar\\EventPanel&#45;&gt;\\WebinoDebug\\Debugger\\Bar\\AbstractPanel</title>
<path fill="none" stroke="black" d="M1056.7,-574C979.461,-574 815.233,-574 724.864,-574"/>
<polygon fill="none" stroke="black" points="724.754,-570.5 714.754,-574 724.754,-577.5 724.754,-570.5"/>
</g>
<!-- \\WebinoDebug\\Debugger\\Bar\\EventPanel&#45;&gt;\\WebinoDebug\\Debugger\\Bar\\PanelInterface -->
<g id="edge41" class="edge"><title>\\WebinoDebug\\Debugger\\Bar\\EventPanel&#45;&gt;\\WebinoDebug\\Debugger\\Bar\\PanelInterface</title>
<path fill="none" stroke="black" stroke-dasharray="1,5" d="M1056.84,-582.504C1026.64,-588.36 984.942,-595.962 948,-601 872.713,-611.267 785.742,-618.876 727.659,-623.355"/>
<polygon fill="none" stroke="black" points="727.224,-619.878 717.518,-624.128 727.755,-626.858 727.224,-619.878"/>
</g>
<!-- \\WebinoDebug\\Debugger\\Bar\\ConfigPanel -->
<g id="node27" class="node"><title>\\WebinoDebug\\Debugger\\Bar\\ConfigPanel</title>
<polygon fill="none" stroke="black" points="1144,-646 1054,-646 1054,-610 1144,-610 1144,-646"/>
<text text-anchor="middle" x="1099" y="-625.1" font-family="Courier,monospace" font-size="11.00">ConfigPanel</text>
</g>
<!-- \\WebinoDebug\\Debugger\\Bar\\ConfigPanel&#45;&gt;\\WebinoDebug\\Debugger\\Bar\\AbstractPanel -->
<g id="edge43" class="edge"><title>\\WebinoDebug\\Debugger\\Bar\\ConfigPanel&#45;&gt;\\WebinoDebug\\Debugger\\Bar\\AbstractPanel</title>
<path fill="none" stroke="black" d="M1053.23,-618.798C1023.37,-613.047 983.49,-605.84 948,-601 871.431,-590.558 782.777,-582.865 724.718,-578.419"/>
<polygon fill="none" stroke="black" points="724.835,-574.918 714.6,-577.653 724.307,-581.898 724.835,-574.918"/>
</g>
<!-- \\WebinoDebug\\Debugger\\Bar\\ConfigPanel&#45;&gt;\\WebinoDebug\\Debugger\\Bar\\PanelInterface -->
<g id="edge45" class="edge"><title>\\WebinoDebug\\Debugger\\Bar\\ConfigPanel&#45;&gt;\\WebinoDebug\\Debugger\\Bar\\PanelInterface</title>
<path fill="none" stroke="black" stroke-dasharray="1,5" d="M1053.47,-628C975.798,-628 817.405,-628 727.73,-628"/>
<polygon fill="none" stroke="black" points="727.677,-624.5 717.677,-628 727.676,-631.5 727.677,-624.5"/>
</g>
<!-- \\WebinoDebug\\Debugger\\Bar\\ConfigPanel&#45;&gt;\\WebinoDebug\\Debugger\\Bar\\PanelInitInterface -->
<g id="edge47" class="edge"><title>\\WebinoDebug\\Debugger\\Bar\\ConfigPanel&#45;&gt;\\WebinoDebug\\Debugger\\Bar\\PanelInitInterface</title>
<path fill="none" stroke="black" stroke-dasharray="1,5" d="M1053.23,-637.202C1023.37,-642.953 983.49,-650.16 948,-655 878.424,-664.488 798.869,-671.707 741.357,-676.282"/>
<polygon fill="none" stroke="black" points="740.938,-672.804 731.243,-677.077 741.487,-679.783 740.938,-672.804"/>
</g>
<!-- \\Tracy\\IBarPanel -->
<g id="node56" class="node"><title>\\Tracy\\IBarPanel</title>
<ellipse fill="none" stroke="black" cx="152" cy="-628" rx="90.0096" ry="18.3848"/>
<text text-anchor="middle" x="152" y="-624.4" font-family="Times Roman,serif" font-size="14.00" fill="gray">\Tracy\IBarPanel</text>
</g>
<!-- \\WebinoDebug\\Debugger\\Bar\\PanelInterface&#45;&gt;\\Tracy\\IBarPanel -->
<g id="edge49" class="edge"><title>\\WebinoDebug\\Debugger\\Bar\\PanelInterface&#45;&gt;\\Tracy\\IBarPanel</title>
<path fill="none" stroke="black" d="M606.45,-628C521.667,-628 358.678,-628 252.69,-628"/>
<polygon fill="none" stroke="black" points="252.615,-624.5 242.615,-628 252.615,-631.5 252.615,-624.5"/>
</g>
<!-- \\WebinoDebug\\Module -->
<g id="node31" class="node"><title>\\WebinoDebug\\Module</title>
<polygon fill="none" stroke="black" points="1127,-258 1071,-258 1071,-222 1127,-222 1127,-258"/>
<text text-anchor="middle" x="1099" y="-237.1" font-family="Courier,monospace" font-size="11.00">Module</text>
</g>
<!-- \\Zend\\ModuleManager\\Feature\\InitProviderInterface -->
<g id="node38" class="node"><title>\\Zend\\ModuleManager\\Feature\\InitProviderInterface</title>
<ellipse fill="none" stroke="black" cx="662" cy="-18" rx="265.165" ry="18.3848"/>
<text text-anchor="middle" x="662" y="-14.4" font-family="Times Roman,serif" font-size="14.00" fill="gray">\Zend\ModuleManager\Feature\InitProviderInterface</text>
</g>
<!-- \\WebinoDebug\\Module&#45;&gt;\\Zend\\ModuleManager\\Feature\\InitProviderInterface -->
<g id="edge21" class="edge"><title>\\WebinoDebug\\Module&#45;&gt;\\Zend\\ModuleManager\\Feature\\InitProviderInterface</title>
<path fill="none" stroke="black" stroke-dasharray="1,5" d="M1091.12,-221.715C1072.74,-181.601 1022.84,-86.1783 948,-45 936.509,-38.6777 924.361,-33.3693 911.813,-28.9334"/>
<polygon fill="none" stroke="black" points="912.736,-25.552 902.143,-25.7089 910.522,-32.1925 912.736,-25.552"/>
</g>
</g>
</svg>
