<?xml version="1.0" encoding="UTF-8" standalone="no"?>
<!DOCTYPE svg PUBLIC "-//W3C//DTD SVG 1.1//EN"
 "http://www.w3.org/Graphics/SVG/1.1/DTD/svg11.dtd">
<!-- Generated by graphviz version 2.36.0 (20140111.2315)
 -->
<!-- Title: G Pages: 1 -->
<svg width="684pt" height="411pt"
 viewBox="0.00 0.00 684.00 411.00" xmlns="http://www.w3.org/2000/svg" xmlns:xlink="http://www.w3.org/1999/xlink">
<g id="graph0" class="graph" transform="scale(1 1) rotate(0) translate(4 407)">
<title>G</title>
<polygon fill="white" stroke="none" points="-4,4 -4,-407 680,-407 680,4 -4,4"/>
<g id="clust1" class="cluster"><title>cluster_Global</title>
<path fill="none" stroke="gray" d="M480,-11C480,-11 656,-11 656,-11 662,-11 668,-17 668,-23 668,-23 668,-383 668,-383 668,-389 662,-395 656,-395 656,-395 480,-395 480,-395 474,-395 468,-389 468,-383 468,-383 468,-23 468,-23 468,-17 474,-11 480,-11"/>
<text text-anchor="middle" x="568" y="-382.2" font-family="Times,serif" font-size="11.00" fill="gray">Global</text>
</g>
<g id="clust2" class="cluster"><title>cluster_\WebinoDebug</title>
<path fill="none" stroke="gray" d="M488,-19C488,-19 648,-19 648,-19 654,-19 660,-25 660,-31 660,-31 660,-355 660,-355 660,-361 654,-367 648,-367 648,-367 488,-367 488,-367 482,-367 476,-361 476,-355 476,-355 476,-31 476,-31 476,-25 482,-19 488,-19"/>
<text text-anchor="middle" x="568" y="-354.2" font-family="Times,serif" font-size="11.00" fill="gray">WebinoDebug</text>
</g>
<g id="clust3" class="cluster"><title>cluster_\WebinoDebug\Factory</title>
<path fill="none" stroke="gray" d="M496,-267C496,-267 640,-267 640,-267 646,-267 652,-273 652,-279 652,-279 652,-327 652,-327 652,-333 646,-339 640,-339 640,-339 496,-339 496,-339 490,-339 484,-333 484,-327 484,-327 484,-279 484,-279 484,-273 490,-267 496,-267"/>
<text text-anchor="middle" x="568" y="-326.2" font-family="Times,serif" font-size="11.00" fill="gray">Factory</text>
</g>
<g id="clust4" class="cluster"><title>cluster_\WebinoDebug\Options</title>
<path fill="none" stroke="gray" d="M520,-187C520,-187 616,-187 616,-187 622,-187 628,-193 628,-199 628,-199 628,-247 628,-247 628,-253 622,-259 616,-259 616,-259 520,-259 520,-259 514,-259 508,-253 508,-247 508,-247 508,-199 508,-199 508,-193 514,-187 520,-187"/>
<text text-anchor="middle" x="568" y="-246.2" font-family="Times,serif" font-size="11.00" fill="gray">Options</text>
</g>
<g id="clust5" class="cluster"><title>cluster_\WebinoDebug\Tracy</title>
<path fill="none" stroke="gray" d="M518,-71C518,-71 618,-71 618,-71 624,-71 630,-77 630,-83 630,-83 630,-167 630,-167 630,-173 624,-179 618,-179 618,-179 518,-179 518,-179 512,-179 506,-173 506,-167 506,-167 506,-83 506,-83 506,-77 512,-71 518,-71"/>
<text text-anchor="middle" x="568" y="-166.2" font-family="Times,serif" font-size="11.00" fill="gray">Tracy</text>
</g>
<g id="clust6" class="cluster"><title>cluster_\WebinoDebug\Tracy\Workaround</title>
<path fill="none" stroke="gray" d="M526,-79C526,-79 610,-79 610,-79 616,-79 622,-85 622,-91 622,-91 622,-139 622,-139 622,-145 616,-151 610,-151 610,-151 526,-151 526,-151 520,-151 514,-145 514,-139 514,-139 514,-91 514,-91 514,-85 520,-79 526,-79"/>
<text text-anchor="middle" x="568" y="-138.2" font-family="Times,serif" font-size="11.00" fill="gray">Workaround</text>
</g>
<!-- \\WebinoDebug\\Factory\\ModuleOptionsFactory -->
<g id="node1" class="node"><title>\\WebinoDebug\\Factory\\ModuleOptionsFactory</title>
<polygon fill="none" stroke="black" points="644,-311 492,-311 492,-275 644,-275 644,-311"/>
<text text-anchor="middle" x="568" y="-290.2" font-family="Courier,monospace" font-size="11.00">ModuleOptionsFactory</text>
</g>
<!-- \\Zend\\ServiceManager\\FactoryInterface -->
<g id="node7" class="node"><title>\\Zend\\ServiceManager\\FactoryInterface</title>
<ellipse fill="none" stroke="black" cx="210" cy="-293" rx="152.173" ry="18"/>
<text text-anchor="middle" x="210" y="-289.3" font-family="Times,serif" font-size="14.00" fill="gray">\Zend\ServiceManager\FactoryInterface</text>
</g>
<!-- \\WebinoDebug\\Factory\\ModuleOptionsFactory&#45;&gt;\\Zend\\ServiceManager\\FactoryInterface -->
<g id="edge3" class="edge"><title>\\WebinoDebug\\Factory\\ModuleOptionsFactory&#45;&gt;\\Zend\\ServiceManager\\FactoryInterface</title>
<path fill="none" stroke="black" stroke-dasharray="1,5" d="M491.937,-293C456.998,-293 413.998,-293 372.24,-293"/>
<polygon fill="none" stroke="black" points="372.225,-289.5 362.225,-293 372.225,-296.5 372.225,-289.5"/>
</g>
<!-- \\WebinoDebug\\Options\\ModuleOptions -->
<g id="node2" class="node"><title>\\WebinoDebug\\Options\\ModuleOptions</title>
<polygon fill="none" stroke="black" points="620,-231 516,-231 516,-195 620,-195 620,-231"/>
<text text-anchor="middle" x="568" y="-210.2" font-family="Courier,monospace" font-size="11.00">ModuleOptions</text>
</g>
<!-- \\Zend\\Stdlib\\AbstractOptions -->
<g id="node8" class="node"><title>\\Zend\\Stdlib\\AbstractOptions</title>
<ellipse fill="none" stroke="black" cx="210" cy="-213" rx="114.28" ry="18"/>
<text text-anchor="middle" x="210" y="-209.3" font-family="Times,serif" font-size="14.00" fill="gray">\Zend\Stdlib\AbstractOptions</text>
</g>
<!-- \\WebinoDebug\\Options\\ModuleOptions&#45;&gt;\\Zend\\Stdlib\\AbstractOptions -->
<g id="edge4" class="edge"><title>\\WebinoDebug\\Options\\ModuleOptions&#45;&gt;\\Zend\\Stdlib\\AbstractOptions</title>
<path fill="none" stroke="black" d="M515.994,-213C468.915,-213 397.107,-213 334.991,-213"/>
<polygon fill="none" stroke="black" points="334.713,-209.5 324.713,-213 334.713,-216.5 334.713,-209.5"/>
</g>
<!-- \\WebinoDebug\\Tracy\\Workaround\\DisabledBar -->
<g id="node3" class="node"><title>\\WebinoDebug\\Tracy\\Workaround\\DisabledBar</title>
<polygon fill="none" stroke="black" points="613.5,-123 522.5,-123 522.5,-87 613.5,-87 613.5,-123"/>
<text text-anchor="middle" x="568" y="-102.2" font-family="Courier,monospace" font-size="11.00">DisabledBar</text>
</g>
<!-- \\WebinoDebug\\Module -->
<g id="node4" class="node"><title>\\WebinoDebug\\Module</title>
<polygon fill="none" stroke="black" points="596.5,-63 539.5,-63 539.5,-27 596.5,-27 596.5,-63"/>
<text text-anchor="middle" x="568" y="-42.2" font-family="Courier,monospace" font-size="11.00">Module</text>
</g>
<!-- \\Zend\\ModuleManager\\Feature\\InitProviderInterface -->
<g id="node5" class="node"><title>\\Zend\\ModuleManager\\Feature\\InitProviderInterface</title>
<ellipse fill="none" stroke="black" cx="210" cy="-72" rx="198.465" ry="18"/>
<text text-anchor="middle" x="210" y="-68.3" font-family="Times,serif" font-size="14.00" fill="gray">\Zend\ModuleManager\Feature\InitProviderInterface</text>
</g>
<!-- \\WebinoDebug\\Module&#45;&gt;\\Zend\\ModuleManager\\Feature\\InitProviderInterface -->
<g id="edge1" class="edge"><title>\\WebinoDebug\\Module&#45;&gt;\\Zend\\ModuleManager\\Feature\\InitProviderInterface</title>
<path fill="none" stroke="black" stroke-dasharray="1,5" d="M539.362,-47.0962C503.152,-49.8424 436.758,-54.8779 373.099,-59.706"/>
<polygon fill="none" stroke="black" points="372.617,-56.2324 362.91,-60.4787 373.146,-63.2123 372.617,-56.2324"/>
</g>
<!-- \\Zend\\ModuleManager\\Feature\\ConfigProviderInterface -->
<g id="node6" class="node"><title>\\Zend\\ModuleManager\\Feature\\ConfigProviderInterface</title>
<ellipse fill="none" stroke="black" cx="210" cy="-18" rx="209.863" ry="18"/>
<text text-anchor="middle" x="210" y="-14.3" font-family="Times,serif" font-size="14.00" fill="gray">\Zend\ModuleManager\Feature\ConfigProviderInterface</text>
</g>
<!-- \\WebinoDebug\\Module&#45;&gt;\\Zend\\ModuleManager\\Feature\\ConfigProviderInterface -->
<g id="edge2" class="edge"><title>\\WebinoDebug\\Module&#45;&gt;\\Zend\\ModuleManager\\Feature\\ConfigProviderInterface</title>
<path fill="none" stroke="black" stroke-dasharray="1,5" d="M539.362,-42.9038C504.156,-40.2337 440.414,-35.3993 378.395,-30.6957"/>
<polygon fill="none" stroke="black" points="378.294,-27.1781 368.058,-29.9117 377.765,-34.158 378.294,-27.1781"/>
</g>
</g>
</svg>
